G04 Layer_Physical_Order=2*
G04 Layer_Color=16711680*
%FSLAX25Y25*%
%MOIN*%
G70*
G01*
G75*
%ADD10C,0.03000*%
%ADD11C,0.13780*%
%ADD12C,0.08000*%
%ADD13C,0.09843*%
%ADD14C,0.08661*%
%ADD15C,0.05906*%
G04:AMPARAMS|DCode=16|XSize=31.5mil|YSize=39.37mil|CornerRadius=3.94mil|HoleSize=0mil|Usage=FLASHONLY|Rotation=270.000|XOffset=0mil|YOffset=0mil|HoleType=Round|Shape=RoundedRectangle|*
%AMROUNDEDRECTD16*
21,1,0.03150,0.03150,0,0,270.0*
21,1,0.02362,0.03937,0,0,270.0*
1,1,0.00787,-0.01575,-0.01181*
1,1,0.00787,-0.01575,0.01181*
1,1,0.00787,0.01575,0.01181*
1,1,0.00787,0.01575,-0.01181*
%
%ADD16ROUNDEDRECTD16*%
%ADD17R,0.03827X0.03158*%
G04:AMPARAMS|DCode=18|XSize=51.18mil|YSize=31.5mil|CornerRadius=3.94mil|HoleSize=0mil|Usage=FLASHONLY|Rotation=90.000|XOffset=0mil|YOffset=0mil|HoleType=Round|Shape=RoundedRectangle|*
%AMROUNDEDRECTD18*
21,1,0.05118,0.02362,0,0,90.0*
21,1,0.04331,0.03150,0,0,90.0*
1,1,0.00787,0.01181,0.02165*
1,1,0.00787,0.01181,-0.02165*
1,1,0.00787,-0.01181,-0.02165*
1,1,0.00787,-0.01181,0.02165*
%
%ADD18ROUNDEDRECTD18*%
%ADD19R,0.05315X0.04528*%
%ADD20R,0.04528X0.05315*%
%ADD21R,0.05512X0.05118*%
%ADD22C,0.10000*%
%ADD23C,0.08000*%
D10*
X367500Y241555D02*
X376555Y232500D01*
X367500Y241555D02*
Y267500D01*
X462150Y175000D02*
X464000Y176850D01*
X447500Y175000D02*
X462150D01*
X383445Y232500D02*
Y242500D01*
X242500Y72500D02*
X252500D01*
X53366Y105886D02*
X58602D01*
X70217Y117500D01*
X84784D02*
X96398Y105886D01*
X100610D01*
X242500Y102500D02*
Y114055D01*
X192500Y102500D02*
Y114055D01*
X77500Y72500D02*
X99055D01*
X105945D02*
X145000D01*
X147500D01*
X165945Y54055D01*
X192500D01*
Y60945D02*
Y72500D01*
X145000D02*
Y80000D01*
X185945Y120945D01*
X192500D01*
X242500D01*
X121437Y227500D02*
X121484Y227453D01*
X157500Y202500D02*
Y227126D01*
X147313Y237313D02*
X157500Y227126D01*
X442000Y199000D02*
X455555D01*
X456555Y200000D01*
X463850Y187000D02*
Y199594D01*
X463445Y200000D02*
X463850Y199594D01*
X376555Y242500D02*
Y266555D01*
X377500Y267500D01*
X383445Y232500D02*
X395500D01*
X410500Y197500D02*
X412000Y199000D01*
X357500Y262500D02*
Y267500D01*
X347500Y262500D02*
Y267500D01*
X391000Y85500D02*
X391500Y85000D01*
X282500Y235000D02*
X302500D01*
X330000Y257500D02*
X337500Y265000D01*
Y267500D01*
X335000Y250000D02*
X347500Y262500D01*
X302500Y257500D02*
X330000D01*
X138500Y117276D02*
Y153000D01*
X114130Y213386D02*
X114516Y213000D01*
X158500Y146500D02*
Y151500D01*
Y146500D02*
X165000Y140000D01*
X138500Y153000D02*
Y168500D01*
X212500Y102500D02*
Y112500D01*
X165000Y140000D02*
X175000D01*
X190000Y155000D02*
Y185000D01*
X175000Y140000D02*
X190000Y155000D01*
X200000Y128445D02*
Y185000D01*
X192500Y120945D02*
X200000Y128445D01*
X260000Y175000D02*
Y185000D01*
Y210000D02*
Y232500D01*
X280000Y185000D02*
X282500Y187500D01*
X157500Y202500D02*
X180000Y180000D01*
Y167500D02*
Y180000D01*
X215000Y167500D02*
X230000D01*
X250000Y210000D02*
Y232500D01*
X280000Y210000D02*
Y232500D01*
X282500Y235000D01*
Y187500D02*
Y210000D01*
X250000Y185000D02*
Y210000D01*
X260000Y185000D02*
Y210000D01*
Y175000D02*
X287500D01*
X295000Y182500D01*
Y202500D01*
X282500Y210000D02*
X385000D01*
X391000Y204000D01*
Y175500D02*
Y204000D01*
X295000Y202500D02*
X380000D01*
X381000Y201500D01*
Y140500D02*
Y201500D01*
X302500Y195000D02*
X372000D01*
X389500Y124000D02*
X391000Y125500D01*
X310000Y187500D02*
X365000D01*
X302500Y180000D02*
Y195000D01*
X310000Y180000D02*
Y187500D01*
X300000Y135000D02*
X330500D01*
X331000Y135500D01*
X300000Y125000D02*
X330500D01*
X331000Y125500D01*
X300000Y115000D02*
X300500Y115500D01*
X331000D01*
X300000Y105000D02*
X300500Y105500D01*
X331000D01*
X323000Y95500D02*
X331000D01*
X315000Y87500D02*
X323000Y95500D01*
X328000Y82500D02*
X331000Y85500D01*
X250000Y170000D02*
Y185000D01*
Y170000D02*
X252500Y167500D01*
X290000D01*
X302500Y180000D01*
X230000Y167500D02*
X237500Y160000D01*
X290000D01*
X310000Y180000D01*
X372000Y130500D02*
Y195000D01*
Y130500D02*
X381000D01*
X368500Y124000D02*
X389500D01*
X365000Y127500D02*
X368500Y124000D01*
X365000Y127500D02*
Y187500D01*
X252500Y102500D02*
X275000D01*
X290000Y87500D01*
X315000D01*
X182500Y92500D02*
Y102500D01*
Y92500D02*
X185000Y90000D01*
X275000D01*
X282500Y82500D01*
X328000D01*
X182500Y72500D02*
Y77500D01*
X187500Y82500D01*
X270000D01*
X277000Y75500D01*
X331000D01*
X212500Y50000D02*
Y72500D01*
X116402Y105886D02*
X117016Y106500D01*
X123937Y110287D02*
X123984Y110240D01*
X100610Y105886D02*
X116402D01*
X123937Y110287D02*
Y120000D01*
X123984Y102760D02*
X138500Y117276D01*
X305500Y65500D02*
X331000D01*
X305000Y65000D02*
X305500Y65500D01*
X108563Y127500D02*
X116063Y120000D01*
X40000Y110000D02*
X57500Y127500D01*
X108563D01*
X40000Y87500D02*
Y110000D01*
Y87500D02*
X95000Y32500D01*
X305000D01*
X340000Y245000D02*
X357500Y262500D01*
X260000Y232500D02*
X272500Y245000D01*
X340000D01*
X250000Y232500D02*
X267500Y250000D01*
X335000D01*
X167500Y225000D02*
X232500D01*
X265000Y257500D01*
X302500D01*
X375000Y62500D02*
Y112500D01*
X378000Y115500D01*
X391000D01*
X32500Y85000D02*
Y222500D01*
Y85000D02*
X92500Y25000D01*
X372500D01*
X375000Y27500D01*
X391000Y175500D02*
X410000D01*
Y105000D02*
Y175500D01*
X420000Y52500D02*
X421250Y51250D01*
X420000Y50000D02*
X421250Y51250D01*
X212500Y50000D02*
X420000D01*
X410000Y105000D02*
X437500D01*
X391500Y95000D02*
X437500D01*
X391000Y95500D02*
X391500Y95000D01*
X391000Y85500D02*
X437000D01*
X437500Y85000D01*
X391500Y75000D02*
X437500D01*
X391000Y75500D02*
X391500Y75000D01*
X391000Y65500D02*
X437000D01*
X437500Y65000D01*
X167500Y40000D02*
X467500D01*
X447500Y95000D02*
X460000D01*
X447500Y85000D02*
X467500D01*
Y40000D02*
Y85000D01*
X48366Y210886D02*
X51102D01*
X112402D02*
X114516Y213000D01*
X121437Y216787D02*
Y227500D01*
Y216787D02*
X121484Y216740D01*
Y209260D02*
X137760D01*
X138500Y210000D01*
Y196500D02*
Y210000D01*
X138750Y218750D02*
X145000Y225000D01*
X138500Y219000D02*
X138750Y218750D01*
X138500Y210000D02*
Y219000D01*
X113563Y227500D02*
Y236063D01*
X114813Y237313D01*
X147313D01*
X32500Y222500D02*
X55000Y245000D01*
X202500D01*
X420000Y120000D02*
X457500D01*
X460000Y95000D02*
Y117500D01*
X457500Y120000D02*
X460000Y117500D01*
X395500Y209500D02*
Y232500D01*
Y209500D02*
X406000Y199000D01*
X412000D01*
X420000Y120000D02*
Y181000D01*
X412000Y189000D02*
X420000Y181000D01*
X440328Y207328D02*
X442000Y209000D01*
X440328Y207328D02*
Y210000D01*
X467500Y85000D02*
Y137500D01*
X430000Y175000D02*
X467500Y137500D01*
X437328Y207328D02*
X440328D01*
X430000Y200000D02*
X437328Y207328D01*
X430000Y175000D02*
Y200000D01*
X456555D02*
Y255000D01*
X412000Y209000D02*
X413000Y210000D01*
X422500D01*
X432500Y220000D01*
Y247500D01*
X450000Y265000D01*
X455000D01*
X53366Y210886D02*
X69980Y227500D01*
X84784Y226713D02*
Y227500D01*
Y226713D02*
X100610Y210886D01*
X112402D01*
X202500Y245000D02*
X207500Y250000D01*
D11*
X50000Y45000D02*
D03*
X100610Y153917D02*
D03*
X53366D02*
D03*
Y105886D02*
D03*
X100610D02*
D03*
X76988Y98012D02*
D03*
X100610Y258917D02*
D03*
X53366D02*
D03*
Y210886D02*
D03*
X100610D02*
D03*
X76988Y203012D02*
D03*
X77500Y72500D02*
D03*
X207500Y212283D02*
D03*
Y247716D02*
D03*
X92500Y347500D02*
D03*
X422500D02*
D03*
D12*
X437500Y105000D02*
D03*
Y95000D02*
D03*
Y85000D02*
D03*
Y75000D02*
D03*
Y65000D02*
D03*
X447500Y95000D02*
D03*
Y85000D02*
D03*
X280000Y210000D02*
D03*
X260000D02*
D03*
X250000D02*
D03*
X300000Y105000D02*
D03*
Y115000D02*
D03*
Y125000D02*
D03*
Y135000D02*
D03*
X331000Y65500D02*
D03*
Y75500D02*
D03*
Y85500D02*
D03*
Y95500D02*
D03*
Y105500D02*
D03*
Y115500D02*
D03*
Y125500D02*
D03*
Y135500D02*
D03*
Y155500D02*
D03*
Y165500D02*
D03*
Y175500D02*
D03*
X391000Y65500D02*
D03*
Y75500D02*
D03*
Y85500D02*
D03*
Y95500D02*
D03*
Y105500D02*
D03*
Y115500D02*
D03*
Y125500D02*
D03*
Y135500D02*
D03*
Y145500D02*
D03*
Y155500D02*
D03*
Y175500D02*
D03*
X381000Y140500D02*
D03*
Y130500D02*
D03*
X145000Y72500D02*
D03*
X190000Y185000D02*
D03*
X200000D02*
D03*
X210000D02*
D03*
X220000D02*
D03*
X230000D02*
D03*
X240000D02*
D03*
X250000D02*
D03*
X260000D02*
D03*
X280000D02*
D03*
X168500Y153000D02*
D03*
X158500D02*
D03*
X138500D02*
D03*
X128500D02*
D03*
X182500Y72500D02*
D03*
X192500D02*
D03*
X212500D02*
D03*
X242500D02*
D03*
X252500D02*
D03*
X182500Y102500D02*
D03*
X192500D02*
D03*
X212500D02*
D03*
X222500D02*
D03*
X242500D02*
D03*
X252500D02*
D03*
X412000Y219000D02*
D03*
Y209000D02*
D03*
Y199000D02*
D03*
Y189000D02*
D03*
X442000Y219000D02*
D03*
Y209000D02*
D03*
Y199000D02*
D03*
Y189000D02*
D03*
X377500Y267500D02*
D03*
X347500D02*
D03*
X357500D02*
D03*
X337500D02*
D03*
D13*
X447500Y105000D02*
D03*
Y75000D02*
D03*
Y65000D02*
D03*
X270000Y210000D02*
D03*
X300000Y95000D02*
D03*
X331000Y145500D02*
D03*
X391000Y165500D02*
D03*
X145000Y97500D02*
D03*
X270000Y185000D02*
D03*
X148500Y153000D02*
D03*
X202500Y72500D02*
D03*
X222500D02*
D03*
X232500D02*
D03*
X202500Y102500D02*
D03*
X232500D02*
D03*
X367500Y267500D02*
D03*
X327500D02*
D03*
D14*
X455000Y285000D02*
D03*
Y275000D02*
D03*
Y265000D02*
D03*
Y255000D02*
D03*
D15*
X447500Y175000D02*
D03*
X302500Y235000D02*
D03*
Y257500D02*
D03*
X145000Y225000D02*
D03*
X167500D02*
D03*
X138500Y168500D02*
D03*
Y196500D02*
D03*
X212500Y112500D02*
D03*
X420000Y120000D02*
D03*
Y52500D02*
D03*
X215000Y167500D02*
D03*
X180000D02*
D03*
X167500Y40000D02*
D03*
X305000Y65000D02*
D03*
Y32500D02*
D03*
X375000Y27500D02*
D03*
Y62500D02*
D03*
D16*
X84784Y117500D02*
D03*
X70217D02*
D03*
X84784Y227500D02*
D03*
X70217D02*
D03*
D17*
X117016Y106500D02*
D03*
X123984Y102760D02*
D03*
Y110240D02*
D03*
X114516Y213000D02*
D03*
X121484Y209260D02*
D03*
Y216740D02*
D03*
D18*
X113563Y227500D02*
D03*
X121437D02*
D03*
X123937Y120000D02*
D03*
X116063D02*
D03*
D19*
X242500Y120945D02*
D03*
Y114055D02*
D03*
X192500Y120945D02*
D03*
Y114055D02*
D03*
Y54055D02*
D03*
Y60945D02*
D03*
D20*
X376555Y232500D02*
D03*
X383445D02*
D03*
X456555Y200000D02*
D03*
X463445D02*
D03*
X376555Y242500D02*
D03*
X383445D02*
D03*
X99055Y72500D02*
D03*
X105945D02*
D03*
D21*
X464000Y176850D02*
D03*
Y183150D02*
D03*
D22*
X77500Y72500D02*
Y97500D01*
X76988Y98012D02*
X77500Y97500D01*
X100610Y153917D02*
X101528Y153000D01*
X100610Y153917D02*
X127583D01*
X147500Y182500D02*
X167500Y162500D01*
X76988Y182500D02*
X147500D01*
X76988D02*
Y203012D01*
X53366Y258917D02*
X79449Y285000D01*
X445000D01*
X428750Y348750D02*
X472500Y305000D01*
X465000Y265000D02*
X472500D01*
Y305000D01*
D23*
X168500Y153000D02*
Y161500D01*
X445000Y285000D02*
X455000D01*
Y265000D02*
X465000D01*
M02*
