G04 Layer_Physical_Order=1*
G04 Layer_Color=255*
%FSLAX25Y25*%
%MOIN*%
G70*
G01*
G75*
%ADD10C,0.03000*%
%ADD11C,0.13780*%
%ADD12C,0.08000*%
%ADD13C,0.09843*%
%ADD14C,0.08661*%
%ADD15C,0.05906*%
G36*
X500000Y242500D02*
X442500D01*
Y280000D01*
X117500D01*
Y12500D01*
X435000D01*
Y15000D01*
X417500D01*
Y48871D01*
X417948Y49092D01*
X418007Y49047D01*
X418968Y48649D01*
X420000Y48513D01*
X421032Y48649D01*
X421993Y49047D01*
X422819Y49681D01*
X423453Y50507D01*
X423851Y51468D01*
X423987Y52500D01*
X423851Y53532D01*
X423453Y54493D01*
X422819Y55319D01*
X422549Y55526D01*
Y116974D01*
X422819Y117181D01*
X423453Y118007D01*
X423851Y118968D01*
X423987Y120000D01*
X423851Y121032D01*
X423453Y121993D01*
X422819Y122819D01*
X421993Y123453D01*
X421032Y123851D01*
X420000Y123987D01*
X418968Y123851D01*
X418007Y123453D01*
X417948Y123408D01*
X417500Y123629D01*
Y137500D01*
X415000D01*
Y15000D01*
X292500D01*
Y202500D01*
X185000D01*
Y222500D01*
X405000D01*
Y160000D01*
X415000D01*
Y147500D01*
X417500D01*
Y160000D01*
X475000D01*
Y235000D01*
X472500D01*
Y162500D01*
X407500D01*
Y185830D01*
X408000Y186000D01*
X408434Y185434D01*
X409478Y184633D01*
X410695Y184129D01*
X412000Y183957D01*
X413305Y184129D01*
X414522Y184633D01*
X415566Y185434D01*
X416367Y186478D01*
X416871Y187695D01*
X417043Y189000D01*
X416871Y190305D01*
X416367Y191522D01*
X415566Y192566D01*
X414522Y193368D01*
X413648Y193729D01*
Y194271D01*
X414522Y194632D01*
X415566Y195434D01*
X416367Y196478D01*
X416871Y197695D01*
X417043Y199000D01*
X416871Y200305D01*
X416367Y201522D01*
X415566Y202566D01*
X414522Y203367D01*
X413648Y203729D01*
Y204271D01*
X414522Y204632D01*
X415566Y205434D01*
X416367Y206478D01*
X416871Y207695D01*
X417043Y209000D01*
X416871Y210305D01*
X416367Y211522D01*
X415566Y212566D01*
X414522Y213368D01*
X413648Y213729D01*
Y214271D01*
X414522Y214633D01*
X415566Y215434D01*
X416367Y216478D01*
X416871Y217695D01*
X417043Y219000D01*
X416871Y220305D01*
X416367Y221522D01*
X415566Y222566D01*
X414522Y223368D01*
X413305Y223871D01*
X412000Y224043D01*
X410695Y223871D01*
X409478Y223368D01*
X408434Y222566D01*
X408000Y222001D01*
X407500Y222170D01*
Y225000D01*
X182500D01*
Y200000D01*
X287500D01*
X290000Y197500D01*
Y15000D01*
X120000D01*
Y277500D01*
X440000D01*
Y240000D01*
X500000D01*
Y15000D01*
X462500D01*
Y12500D01*
X500000D01*
Y-2500D01*
X0D01*
Y400000D01*
X500000D01*
Y242500D01*
D02*
G37*
%LPC*%
G36*
X94500Y355138D02*
Y349500D01*
X100138D01*
X99825Y350534D01*
X99092Y351905D01*
X98106Y353106D01*
X96904Y354092D01*
X95534Y354824D01*
X94500Y355138D01*
D02*
G37*
G36*
X90500D02*
X89466Y354824D01*
X88095Y354092D01*
X86894Y353106D01*
X85908Y351905D01*
X85176Y350534D01*
X84862Y349500D01*
X90500D01*
Y355138D01*
D02*
G37*
G36*
X100138Y345500D02*
X94500D01*
Y339862D01*
X95534Y340176D01*
X96904Y340908D01*
X98106Y341894D01*
X99092Y343095D01*
X99825Y344466D01*
X100138Y345500D01*
D02*
G37*
G36*
X90500D02*
X84862D01*
X85176Y344466D01*
X85908Y343095D01*
X86894Y341894D01*
X88095Y340908D01*
X89466Y340176D01*
X90500Y339862D01*
Y345500D01*
D02*
G37*
G36*
X422500Y355428D02*
X420953Y355276D01*
X419466Y354824D01*
X418095Y354092D01*
X416894Y353106D01*
X415908Y351905D01*
X415175Y350534D01*
X414724Y349047D01*
X414572Y347500D01*
X414724Y345953D01*
X415175Y344466D01*
X415908Y343095D01*
X416894Y341894D01*
X418095Y340908D01*
X419466Y340176D01*
X420953Y339724D01*
X422500Y339572D01*
X424047Y339724D01*
X425534Y340176D01*
X426904Y340908D01*
X428106Y341894D01*
X429092Y343095D01*
X429824Y344466D01*
X430276Y345953D01*
X430428Y347500D01*
X430276Y349047D01*
X429824Y350534D01*
X429092Y351905D01*
X428106Y353106D01*
X426904Y354092D01*
X425534Y354824D01*
X424047Y355276D01*
X422500Y355428D01*
D02*
G37*
G36*
X455000Y290377D02*
X453608Y290194D01*
X452312Y289656D01*
X451198Y288802D01*
X450344Y287688D01*
X449806Y286392D01*
X449623Y285000D01*
X449806Y283608D01*
X450344Y282312D01*
X451198Y281198D01*
X452312Y280344D01*
X452538Y280250D01*
Y279750D01*
X452312Y279656D01*
X451198Y278802D01*
X450344Y277688D01*
X450059Y277000D01*
X455000D01*
X459941D01*
X459656Y277688D01*
X458802Y278802D01*
X457688Y279656D01*
X457462Y279750D01*
Y280250D01*
X457688Y280344D01*
X458802Y281198D01*
X459656Y282312D01*
X460193Y283608D01*
X460377Y285000D01*
X460193Y286392D01*
X459656Y287688D01*
X458802Y288802D01*
X457688Y289656D01*
X456392Y290194D01*
X455000Y290377D01*
D02*
G37*
G36*
X325500Y273081D02*
X325223Y272997D01*
X324194Y272447D01*
X323293Y271707D01*
X322553Y270806D01*
X322003Y269777D01*
X321919Y269500D01*
X325500D01*
Y273081D01*
D02*
G37*
G36*
X369500D02*
Y267500D01*
Y261919D01*
X369777Y262003D01*
X370806Y262553D01*
X371707Y263293D01*
X372447Y264194D01*
X372725Y264714D01*
X373310Y264748D01*
X373934Y263934D01*
X374978Y263133D01*
X376195Y262629D01*
X377500Y262457D01*
X378805Y262629D01*
X380022Y263133D01*
X381066Y263934D01*
X381868Y264978D01*
X382371Y266195D01*
X382543Y267500D01*
X382371Y268805D01*
X381868Y270022D01*
X381066Y271066D01*
X380022Y271867D01*
X378805Y272371D01*
X377500Y272543D01*
X376195Y272371D01*
X374978Y271867D01*
X373934Y271066D01*
X373310Y270252D01*
X372725Y270286D01*
X372447Y270806D01*
X371707Y271707D01*
X370806Y272447D01*
X369777Y272997D01*
X369500Y273081D01*
D02*
G37*
G36*
X329500D02*
Y267500D01*
Y261919D01*
X329777Y262003D01*
X330806Y262553D01*
X331707Y263293D01*
X332447Y264194D01*
X332725Y264714D01*
X333310Y264748D01*
X333934Y263934D01*
X334978Y263133D01*
X336195Y262629D01*
X337500Y262457D01*
X338805Y262629D01*
X340022Y263133D01*
X341066Y263934D01*
X341867Y264978D01*
X342229Y265852D01*
X342771D01*
X343132Y264978D01*
X343934Y263934D01*
X344978Y263133D01*
X346195Y262629D01*
X347500Y262457D01*
X348805Y262629D01*
X350022Y263133D01*
X351066Y263934D01*
X351868Y264978D01*
X352229Y265852D01*
X352771D01*
X353133Y264978D01*
X353934Y263934D01*
X354978Y263133D01*
X356195Y262629D01*
X357500Y262457D01*
X358805Y262629D01*
X360022Y263133D01*
X361066Y263934D01*
X361690Y264748D01*
X362275Y264714D01*
X362553Y264194D01*
X363293Y263293D01*
X364194Y262553D01*
X365223Y262003D01*
X365500Y261919D01*
Y267500D01*
Y273081D01*
X365223Y272997D01*
X364194Y272447D01*
X363293Y271707D01*
X362553Y270806D01*
X362275Y270286D01*
X361690Y270252D01*
X361066Y271066D01*
X360022Y271867D01*
X358805Y272371D01*
X357500Y272543D01*
X356195Y272371D01*
X354978Y271867D01*
X353934Y271066D01*
X353133Y270022D01*
X352771Y269148D01*
X352229D01*
X351868Y270022D01*
X351066Y271066D01*
X350022Y271867D01*
X348805Y272371D01*
X347500Y272543D01*
X346195Y272371D01*
X344978Y271867D01*
X343934Y271066D01*
X343132Y270022D01*
X342771Y269148D01*
X342229D01*
X341867Y270022D01*
X341066Y271066D01*
X340022Y271867D01*
X338805Y272371D01*
X337500Y272543D01*
X336195Y272371D01*
X334978Y271867D01*
X333934Y271066D01*
X333310Y270252D01*
X332725Y270286D01*
X332447Y270806D01*
X331707Y271707D01*
X330806Y272447D01*
X329777Y272997D01*
X329500Y273081D01*
D02*
G37*
G36*
X325500Y265500D02*
X321919D01*
X322003Y265223D01*
X322553Y264194D01*
X323293Y263293D01*
X324194Y262553D01*
X325223Y262003D01*
X325500Y261919D01*
Y265500D01*
D02*
G37*
G36*
X102610Y266555D02*
Y260917D01*
X108248D01*
X107935Y261951D01*
X107202Y263322D01*
X106216Y264523D01*
X105015Y265509D01*
X103644Y266242D01*
X102610Y266555D01*
D02*
G37*
G36*
X98610D02*
X97576Y266242D01*
X96206Y265509D01*
X95004Y264523D01*
X94018Y263322D01*
X93286Y261951D01*
X92972Y260917D01*
X98610D01*
Y266555D01*
D02*
G37*
G36*
X108248Y256917D02*
X102610D01*
Y251279D01*
X103644Y251593D01*
X105015Y252326D01*
X106216Y253311D01*
X107202Y254513D01*
X107935Y255883D01*
X108248Y256917D01*
D02*
G37*
G36*
X98610D02*
X92972D01*
X93286Y255883D01*
X94018Y254513D01*
X95004Y253311D01*
X96206Y252326D01*
X97576Y251593D01*
X98610Y251279D01*
Y256917D01*
D02*
G37*
G36*
X53366Y266845D02*
X51819Y266693D01*
X50332Y266242D01*
X48962Y265509D01*
X47760Y264523D01*
X46774Y263322D01*
X46042Y261951D01*
X45590Y260464D01*
X45438Y258917D01*
X45590Y257371D01*
X46042Y255883D01*
X46774Y254513D01*
X47760Y253311D01*
X48962Y252326D01*
X50332Y251593D01*
X51819Y251142D01*
X53366Y250989D01*
X54913Y251142D01*
X56400Y251593D01*
X57771Y252326D01*
X58972Y253311D01*
X59958Y254513D01*
X60691Y255883D01*
X61142Y257371D01*
X61294Y258917D01*
X61142Y260464D01*
X60691Y261951D01*
X59958Y263322D01*
X58972Y264523D01*
X57771Y265509D01*
X56400Y266242D01*
X54913Y266693D01*
X53366Y266845D01*
D02*
G37*
G36*
X459941Y273000D02*
X455000D01*
X450059D01*
X450344Y272312D01*
X451198Y271198D01*
X452312Y270344D01*
X452538Y270250D01*
Y269750D01*
X452312Y269656D01*
X451198Y268802D01*
X450344Y267688D01*
X449806Y266392D01*
X449623Y265000D01*
X449806Y263608D01*
X450344Y262312D01*
X451198Y261198D01*
X452312Y260344D01*
X452538Y260250D01*
Y259750D01*
X452312Y259656D01*
X451198Y258802D01*
X450344Y257688D01*
X449806Y256392D01*
X449623Y255000D01*
X449806Y253608D01*
X450344Y252312D01*
X451198Y251198D01*
X452312Y250344D01*
X453608Y249806D01*
X455000Y249623D01*
X456392Y249806D01*
X457688Y250344D01*
X458802Y251198D01*
X459656Y252312D01*
X460193Y253608D01*
X460377Y255000D01*
X460193Y256392D01*
X459656Y257688D01*
X458802Y258802D01*
X457688Y259656D01*
X457462Y259750D01*
Y260250D01*
X457688Y260344D01*
X458802Y261198D01*
X459656Y262312D01*
X460193Y263608D01*
X460377Y265000D01*
X460193Y266392D01*
X459656Y267688D01*
X458802Y268802D01*
X457688Y269656D01*
X457462Y269750D01*
Y270250D01*
X457688Y270344D01*
X458802Y271198D01*
X459656Y272312D01*
X459941Y273000D01*
D02*
G37*
G36*
X207500Y255644D02*
X205953Y255492D01*
X204466Y255041D01*
X203096Y254308D01*
X201894Y253322D01*
X200908Y252121D01*
X200175Y250750D01*
X199724Y249263D01*
X199572Y247716D01*
X199724Y246170D01*
X200175Y244683D01*
X200908Y243312D01*
X201894Y242111D01*
X203096Y241125D01*
X204466Y240392D01*
X205953Y239941D01*
X207500Y239789D01*
X209047Y239941D01*
X210534Y240392D01*
X211905Y241125D01*
X213106Y242111D01*
X214092Y243312D01*
X214825Y244683D01*
X215276Y246170D01*
X215428Y247716D01*
X215276Y249263D01*
X214825Y250750D01*
X214092Y252121D01*
X213106Y253322D01*
X211905Y254308D01*
X210534Y255041D01*
X209047Y255492D01*
X207500Y255644D01*
D02*
G37*
G36*
X302500Y261487D02*
X301468Y261351D01*
X300507Y260953D01*
X299681Y260319D01*
X299047Y259493D01*
X298649Y258532D01*
X298513Y257500D01*
X298649Y256468D01*
X299047Y255507D01*
X299681Y254681D01*
X299951Y254474D01*
Y238026D01*
X299681Y237819D01*
X299047Y236993D01*
X298649Y236032D01*
X298513Y235000D01*
X298649Y233968D01*
X299047Y233007D01*
X299681Y232181D01*
X300507Y231547D01*
X301468Y231149D01*
X302500Y231013D01*
X303532Y231149D01*
X304493Y231547D01*
X305319Y232181D01*
X305953Y233007D01*
X306351Y233968D01*
X306487Y235000D01*
X306351Y236032D01*
X305953Y236993D01*
X305319Y237819D01*
X305049Y238026D01*
Y254474D01*
X305319Y254681D01*
X305953Y255507D01*
X306351Y256468D01*
X306487Y257500D01*
X306351Y258532D01*
X305953Y259493D01*
X305319Y260319D01*
X304493Y260953D01*
X303532Y261351D01*
X302500Y261487D01*
D02*
G37*
G36*
X167500Y228987D02*
X166468Y228851D01*
X165507Y228453D01*
X164681Y227819D01*
X164474Y227549D01*
X148026D01*
X147819Y227819D01*
X146993Y228453D01*
X146032Y228851D01*
X145000Y228987D01*
X143968Y228851D01*
X143007Y228453D01*
X142181Y227819D01*
X141547Y226993D01*
X141149Y226032D01*
X141013Y225000D01*
X141149Y223968D01*
X141547Y223007D01*
X142181Y222181D01*
X143007Y221547D01*
X143968Y221149D01*
X145000Y221013D01*
X146032Y221149D01*
X146993Y221547D01*
X147819Y222181D01*
X148026Y222451D01*
X164474D01*
X164681Y222181D01*
X165507Y221547D01*
X166468Y221149D01*
X167500Y221013D01*
X168532Y221149D01*
X169493Y221547D01*
X170319Y222181D01*
X170953Y223007D01*
X171351Y223968D01*
X171487Y225000D01*
X171351Y226032D01*
X170953Y226993D01*
X170319Y227819D01*
X169493Y228453D01*
X168532Y228851D01*
X167500Y228987D01*
D02*
G37*
G36*
X209500Y219921D02*
Y214283D01*
X215138D01*
X214825Y215317D01*
X214092Y216688D01*
X213106Y217889D01*
X211905Y218875D01*
X210534Y219608D01*
X209500Y219921D01*
D02*
G37*
G36*
X205500D02*
X204466Y219608D01*
X203096Y218875D01*
X201894Y217889D01*
X200908Y216688D01*
X200175Y215317D01*
X199862Y214283D01*
X205500D01*
Y219921D01*
D02*
G37*
G36*
X55366Y218524D02*
Y212886D01*
X61004D01*
X60691Y213920D01*
X59958Y215290D01*
X58972Y216492D01*
X57771Y217478D01*
X56400Y218210D01*
X55366Y218524D01*
D02*
G37*
G36*
X51366D02*
X50332Y218210D01*
X48962Y217478D01*
X47760Y216492D01*
X46774Y215290D01*
X46042Y213920D01*
X45728Y212886D01*
X51366D01*
Y218524D01*
D02*
G37*
G36*
X268000Y215581D02*
X267723Y215497D01*
X266694Y214947D01*
X265793Y214207D01*
X265053Y213306D01*
X264775Y212786D01*
X264190Y212753D01*
X263566Y213566D01*
X262522Y214368D01*
X261305Y214871D01*
X260000Y215043D01*
X258695Y214871D01*
X257478Y214368D01*
X256434Y213566D01*
X255632Y212522D01*
X255271Y211648D01*
X254729D01*
X254367Y212522D01*
X253566Y213566D01*
X252522Y214368D01*
X251305Y214871D01*
X250000Y215043D01*
X248695Y214871D01*
X247478Y214368D01*
X246434Y213566D01*
X245633Y212522D01*
X245129Y211305D01*
X244957Y210000D01*
X245129Y208695D01*
X245633Y207478D01*
X246434Y206434D01*
X247478Y205632D01*
X248695Y205129D01*
X250000Y204957D01*
X251305Y205129D01*
X252522Y205632D01*
X253566Y206434D01*
X254367Y207478D01*
X254729Y208352D01*
X255271D01*
X255632Y207478D01*
X256434Y206434D01*
X257478Y205632D01*
X258695Y205129D01*
X260000Y204957D01*
X261305Y205129D01*
X262522Y205632D01*
X263566Y206434D01*
X264190Y207247D01*
X264775Y207214D01*
X265053Y206694D01*
X265793Y205793D01*
X266694Y205053D01*
X267723Y204503D01*
X268000Y204419D01*
Y210000D01*
Y215581D01*
D02*
G37*
G36*
X272000Y215581D02*
Y210000D01*
Y204419D01*
X272277Y204503D01*
X273306Y205053D01*
X274207Y205793D01*
X274947Y206694D01*
X275225Y207214D01*
X275810Y207247D01*
X276434Y206434D01*
X277478Y205632D01*
X278695Y205129D01*
X280000Y204957D01*
X281305Y205129D01*
X282522Y205632D01*
X283566Y206434D01*
X284367Y207478D01*
X284871Y208695D01*
X285043Y210000D01*
X284871Y211305D01*
X284367Y212522D01*
X283566Y213566D01*
X282522Y214368D01*
X281305Y214871D01*
X280000Y215043D01*
X278695Y214871D01*
X277478Y214368D01*
X276434Y213566D01*
X275810Y212753D01*
X275225Y212786D01*
X274947Y213306D01*
X274207Y214207D01*
X273306Y214947D01*
X272277Y215497D01*
X272000Y215581D01*
D02*
G37*
G36*
X215138Y210283D02*
X209500D01*
Y204645D01*
X210534Y204959D01*
X211905Y205692D01*
X213106Y206678D01*
X214092Y207879D01*
X214825Y209250D01*
X215138Y210283D01*
D02*
G37*
G36*
X205500D02*
X199862D01*
X200175Y209250D01*
X200908Y207879D01*
X201894Y206678D01*
X203096Y205692D01*
X204466Y204959D01*
X205500Y204645D01*
Y210283D01*
D02*
G37*
G36*
X61004Y208886D02*
X55366D01*
Y203248D01*
X56400Y203561D01*
X57771Y204294D01*
X58972Y205280D01*
X59958Y206481D01*
X60691Y207852D01*
X61004Y208886D01*
D02*
G37*
G36*
X51366D02*
X45728D01*
X46042Y207852D01*
X46774Y206481D01*
X47760Y205280D01*
X48962Y204294D01*
X50332Y203561D01*
X51366Y203248D01*
Y208886D01*
D02*
G37*
G36*
X100610Y218814D02*
X99064Y218661D01*
X97576Y218210D01*
X96206Y217478D01*
X95004Y216492D01*
X94018Y215290D01*
X93286Y213920D01*
X92835Y212433D01*
X92682Y210886D01*
X92835Y209339D01*
X93286Y207852D01*
X94018Y206481D01*
X95004Y205280D01*
X96206Y204294D01*
X97576Y203561D01*
X99064Y203110D01*
X100610Y202958D01*
X102157Y203110D01*
X103644Y203561D01*
X105015Y204294D01*
X106216Y205280D01*
X107202Y206481D01*
X107935Y207852D01*
X108386Y209339D01*
X108538Y210886D01*
X108386Y212433D01*
X107935Y213920D01*
X107202Y215290D01*
X106216Y216492D01*
X105015Y217478D01*
X103644Y218210D01*
X102157Y218661D01*
X100610Y218814D01*
D02*
G37*
G36*
X76988Y210940D02*
X75441Y210787D01*
X73954Y210336D01*
X72584Y209604D01*
X71382Y208618D01*
X70396Y207416D01*
X69664Y206046D01*
X69213Y204558D01*
X69060Y203012D01*
X69213Y201465D01*
X69664Y199978D01*
X70396Y198607D01*
X71382Y197406D01*
X72584Y196420D01*
X73954Y195687D01*
X75441Y195236D01*
X76988Y195084D01*
X78535Y195236D01*
X80022Y195687D01*
X81393Y196420D01*
X82594Y197406D01*
X83580Y198607D01*
X84313Y199978D01*
X84764Y201465D01*
X84916Y203012D01*
X84764Y204558D01*
X84313Y206046D01*
X83580Y207416D01*
X82594Y208618D01*
X81393Y209604D01*
X80022Y210336D01*
X78535Y210787D01*
X76988Y210940D01*
D02*
G37*
G36*
X268000Y190581D02*
X267723Y190497D01*
X266694Y189947D01*
X265793Y189207D01*
X265053Y188306D01*
X264775Y187786D01*
X264190Y187752D01*
X263566Y188566D01*
X262522Y189367D01*
X261305Y189871D01*
X260000Y190043D01*
X258695Y189871D01*
X257478Y189367D01*
X256434Y188566D01*
X255632Y187522D01*
X255271Y186648D01*
X254729D01*
X254367Y187522D01*
X253566Y188566D01*
X252522Y189367D01*
X251305Y189871D01*
X250000Y190043D01*
X248695Y189871D01*
X247478Y189367D01*
X246434Y188566D01*
X245633Y187522D01*
X245271Y186648D01*
X244729D01*
X244368Y187522D01*
X243566Y188566D01*
X242522Y189367D01*
X241305Y189871D01*
X240000Y190043D01*
X238695Y189871D01*
X237478Y189367D01*
X236434Y188566D01*
X235632Y187522D01*
X235271Y186648D01*
X234729D01*
X234367Y187522D01*
X233566Y188566D01*
X232522Y189367D01*
X231305Y189871D01*
X230000Y190043D01*
X228695Y189871D01*
X227478Y189367D01*
X226434Y188566D01*
X225633Y187522D01*
X225271Y186648D01*
X224729D01*
X224367Y187522D01*
X223566Y188566D01*
X222522Y189367D01*
X221305Y189871D01*
X220000Y190043D01*
X218695Y189871D01*
X217478Y189367D01*
X216434Y188566D01*
X215633Y187522D01*
X215271Y186648D01*
X214729D01*
X214368Y187522D01*
X213566Y188566D01*
X212522Y189367D01*
X211305Y189871D01*
X210000Y190043D01*
X208695Y189871D01*
X207478Y189367D01*
X206434Y188566D01*
X205632Y187522D01*
X205271Y186648D01*
X204729D01*
X204367Y187522D01*
X203566Y188566D01*
X202522Y189367D01*
X201305Y189871D01*
X200000Y190043D01*
X198695Y189871D01*
X197478Y189367D01*
X196434Y188566D01*
X195633Y187522D01*
X195271Y186648D01*
X194729D01*
X194368Y187522D01*
X193566Y188566D01*
X192522Y189367D01*
X191305Y189871D01*
X190000Y190043D01*
X188695Y189871D01*
X187478Y189367D01*
X186434Y188566D01*
X185633Y187522D01*
X185129Y186305D01*
X184957Y185000D01*
X185129Y183695D01*
X185633Y182478D01*
X186434Y181434D01*
X187478Y180632D01*
X188695Y180129D01*
X190000Y179957D01*
X191305Y180129D01*
X192522Y180632D01*
X193566Y181434D01*
X194368Y182478D01*
X194729Y183352D01*
X195271D01*
X195633Y182478D01*
X196434Y181434D01*
X197478Y180632D01*
X198695Y180129D01*
X200000Y179957D01*
X201305Y180129D01*
X202522Y180632D01*
X203566Y181434D01*
X204367Y182478D01*
X204729Y183352D01*
X205271D01*
X205632Y182478D01*
X206434Y181434D01*
X207478Y180632D01*
X208695Y180129D01*
X210000Y179957D01*
X211305Y180129D01*
X212522Y180632D01*
X213566Y181434D01*
X214368Y182478D01*
X214729Y183352D01*
X215271D01*
X215633Y182478D01*
X216434Y181434D01*
X217478Y180632D01*
X218695Y180129D01*
X220000Y179957D01*
X221305Y180129D01*
X222522Y180632D01*
X223566Y181434D01*
X224367Y182478D01*
X224729Y183352D01*
X225271D01*
X225633Y182478D01*
X226434Y181434D01*
X227478Y180632D01*
X228695Y180129D01*
X230000Y179957D01*
X231305Y180129D01*
X232522Y180632D01*
X233566Y181434D01*
X234367Y182478D01*
X234729Y183352D01*
X235271D01*
X235632Y182478D01*
X236434Y181434D01*
X237478Y180632D01*
X238695Y180129D01*
X240000Y179957D01*
X241305Y180129D01*
X242522Y180632D01*
X243566Y181434D01*
X244368Y182478D01*
X244729Y183352D01*
X245271D01*
X245633Y182478D01*
X246434Y181434D01*
X247478Y180632D01*
X248695Y180129D01*
X250000Y179957D01*
X251305Y180129D01*
X252522Y180632D01*
X253566Y181434D01*
X254367Y182478D01*
X254729Y183352D01*
X255271D01*
X255632Y182478D01*
X256434Y181434D01*
X257478Y180632D01*
X258695Y180129D01*
X260000Y179957D01*
X261305Y180129D01*
X262522Y180632D01*
X263566Y181434D01*
X264190Y182247D01*
X264775Y182214D01*
X265053Y181694D01*
X265793Y180793D01*
X266694Y180053D01*
X267723Y179503D01*
X268000Y179419D01*
Y185000D01*
Y190581D01*
D02*
G37*
G36*
X442000Y224043D02*
X440695Y223871D01*
X439478Y223368D01*
X438434Y222566D01*
X437633Y221522D01*
X437129Y220305D01*
X436957Y219000D01*
X437129Y217695D01*
X437633Y216478D01*
X438434Y215434D01*
X439478Y214633D01*
X440352Y214271D01*
Y213729D01*
X439478Y213368D01*
X438434Y212566D01*
X437633Y211522D01*
X437129Y210305D01*
X436957Y209000D01*
X437129Y207695D01*
X437633Y206478D01*
X438434Y205434D01*
X439478Y204632D01*
X440352Y204271D01*
Y203729D01*
X439478Y203367D01*
X438434Y202566D01*
X437633Y201522D01*
X437129Y200305D01*
X436957Y199000D01*
X437129Y197695D01*
X437633Y196478D01*
X438434Y195434D01*
X439478Y194632D01*
X440352Y194271D01*
Y193729D01*
X439478Y193368D01*
X438434Y192566D01*
X437633Y191522D01*
X437129Y190305D01*
X436957Y189000D01*
X437129Y187695D01*
X437633Y186478D01*
X438434Y185434D01*
X439478Y184633D01*
X440695Y184129D01*
X442000Y183957D01*
X443305Y184129D01*
X444522Y184633D01*
X445566Y185434D01*
X446368Y186478D01*
X446871Y187695D01*
X447043Y189000D01*
X446871Y190305D01*
X446368Y191522D01*
X445566Y192566D01*
X444522Y193368D01*
X443648Y193729D01*
Y194271D01*
X444522Y194632D01*
X445566Y195434D01*
X446368Y196478D01*
X446871Y197695D01*
X447043Y199000D01*
X446871Y200305D01*
X446368Y201522D01*
X445566Y202566D01*
X444522Y203367D01*
X443648Y203729D01*
Y204271D01*
X444522Y204632D01*
X445566Y205434D01*
X446368Y206478D01*
X446871Y207695D01*
X447043Y209000D01*
X446871Y210305D01*
X446368Y211522D01*
X445566Y212566D01*
X444522Y213368D01*
X443648Y213729D01*
Y214271D01*
X444522Y214633D01*
X445566Y215434D01*
X446368Y216478D01*
X446871Y217695D01*
X447043Y219000D01*
X446871Y220305D01*
X446368Y221522D01*
X445566Y222566D01*
X444522Y223368D01*
X443305Y223871D01*
X442000Y224043D01*
D02*
G37*
G36*
X272000Y190581D02*
Y185000D01*
Y179419D01*
X272277Y179503D01*
X273306Y180053D01*
X274207Y180793D01*
X274947Y181694D01*
X275225Y182214D01*
X275810Y182247D01*
X276434Y181434D01*
X277478Y180632D01*
X278695Y180129D01*
X280000Y179957D01*
X281305Y180129D01*
X282522Y180632D01*
X283566Y181434D01*
X284367Y182478D01*
X284871Y183695D01*
X285043Y185000D01*
X284871Y186305D01*
X284367Y187522D01*
X283566Y188566D01*
X282522Y189367D01*
X281305Y189871D01*
X280000Y190043D01*
X278695Y189871D01*
X277478Y189367D01*
X276434Y188566D01*
X275810Y187752D01*
X275225Y187786D01*
X274947Y188306D01*
X274207Y189207D01*
X273306Y189947D01*
X272277Y190497D01*
X272000Y190581D01*
D02*
G37*
G36*
X449500Y177877D02*
Y177000D01*
X450377D01*
X449996Y177496D01*
X449500Y177877D01*
D02*
G37*
G36*
X445500D02*
X445004Y177496D01*
X444623Y177000D01*
X445500D01*
Y177877D01*
D02*
G37*
G36*
X450377Y173000D02*
X449500D01*
Y172123D01*
X449996Y172504D01*
X450377Y173000D01*
D02*
G37*
G36*
X445500D02*
X444623D01*
X445004Y172504D01*
X445500Y172123D01*
Y173000D01*
D02*
G37*
G36*
X215000Y171487D02*
X213968Y171351D01*
X213007Y170953D01*
X212181Y170319D01*
X211974Y170049D01*
X183026D01*
X182819Y170319D01*
X181993Y170953D01*
X181032Y171351D01*
X180000Y171487D01*
X178968Y171351D01*
X178007Y170953D01*
X177181Y170319D01*
X176547Y169493D01*
X176149Y168532D01*
X176013Y167500D01*
X176149Y166468D01*
X176547Y165507D01*
X177181Y164681D01*
X178007Y164047D01*
X178968Y163649D01*
X180000Y163513D01*
X181032Y163649D01*
X181993Y164047D01*
X182819Y164681D01*
X183026Y164951D01*
X211974D01*
X212181Y164681D01*
X213007Y164047D01*
X213968Y163649D01*
X215000Y163513D01*
X216032Y163649D01*
X216993Y164047D01*
X217819Y164681D01*
X218453Y165507D01*
X218851Y166468D01*
X218987Y167500D01*
X218851Y168532D01*
X218453Y169493D01*
X217819Y170319D01*
X216993Y170953D01*
X216032Y171351D01*
X215000Y171487D01*
D02*
G37*
G36*
X391000Y180543D02*
X389695Y180371D01*
X388478Y179867D01*
X387434Y179066D01*
X386632Y178022D01*
X386129Y176805D01*
X385957Y175500D01*
X386129Y174195D01*
X386632Y172978D01*
X387434Y171934D01*
X388247Y171310D01*
X388214Y170725D01*
X387694Y170447D01*
X386793Y169707D01*
X386053Y168806D01*
X385503Y167777D01*
X385419Y167500D01*
X396581D01*
X396497Y167777D01*
X395947Y168806D01*
X395207Y169707D01*
X394306Y170447D01*
X393786Y170725D01*
X393753Y171310D01*
X394566Y171934D01*
X395368Y172978D01*
X395871Y174195D01*
X396043Y175500D01*
X395871Y176805D01*
X395368Y178022D01*
X394566Y179066D01*
X393522Y179867D01*
X392305Y180371D01*
X391000Y180543D01*
D02*
G37*
G36*
X138500Y200487D02*
X137468Y200351D01*
X136507Y199953D01*
X135681Y199319D01*
X135047Y198493D01*
X134649Y197532D01*
X134513Y196500D01*
X134649Y195468D01*
X135047Y194507D01*
X135681Y193681D01*
X135951Y193474D01*
Y171526D01*
X135681Y171319D01*
X135047Y170493D01*
X134649Y169532D01*
X134513Y168500D01*
X134649Y167468D01*
X135047Y166507D01*
X135681Y165681D01*
X136507Y165047D01*
X137468Y164649D01*
X138500Y164513D01*
X139532Y164649D01*
X140493Y165047D01*
X141319Y165681D01*
X141953Y166507D01*
X142351Y167468D01*
X142487Y168500D01*
X142351Y169532D01*
X141953Y170493D01*
X141319Y171319D01*
X141049Y171526D01*
Y193474D01*
X141319Y193681D01*
X141953Y194507D01*
X142351Y195468D01*
X142487Y196500D01*
X142351Y197532D01*
X141953Y198493D01*
X141319Y199319D01*
X140493Y199953D01*
X139532Y200351D01*
X138500Y200487D01*
D02*
G37*
G36*
X55366Y161555D02*
Y155917D01*
X61004D01*
X60691Y156951D01*
X59958Y158322D01*
X58972Y159523D01*
X57771Y160509D01*
X56400Y161242D01*
X55366Y161555D01*
D02*
G37*
G36*
X51366D02*
X50332Y161242D01*
X48962Y160509D01*
X47760Y159523D01*
X46774Y158322D01*
X46042Y156951D01*
X45728Y155917D01*
X51366D01*
Y161555D01*
D02*
G37*
G36*
X146500Y158581D02*
X146223Y158497D01*
X145194Y157947D01*
X144293Y157207D01*
X143553Y156306D01*
X143275Y155786D01*
X142690Y155753D01*
X142066Y156566D01*
X141022Y157368D01*
X139805Y157871D01*
X138500Y158043D01*
X137195Y157871D01*
X135978Y157368D01*
X134934Y156566D01*
X134133Y155522D01*
X133771Y154648D01*
X133229D01*
X132868Y155522D01*
X132066Y156566D01*
X131022Y157368D01*
X129805Y157871D01*
X128500Y158043D01*
X127195Y157871D01*
X125978Y157368D01*
X124934Y156566D01*
X124133Y155522D01*
X123629Y154305D01*
X123457Y153000D01*
X123629Y151695D01*
X124133Y150478D01*
X124934Y149434D01*
X125978Y148633D01*
X127195Y148129D01*
X128500Y147957D01*
X129805Y148129D01*
X131022Y148633D01*
X132066Y149434D01*
X132868Y150478D01*
X133229Y151352D01*
X133771D01*
X134133Y150478D01*
X134934Y149434D01*
X135978Y148633D01*
X137195Y148129D01*
X138500Y147957D01*
X139805Y148129D01*
X141022Y148633D01*
X142066Y149434D01*
X142690Y150248D01*
X143275Y150214D01*
X143553Y149694D01*
X144293Y148793D01*
X145194Y148053D01*
X146223Y147503D01*
X146500Y147419D01*
Y153000D01*
Y158581D01*
D02*
G37*
G36*
X150500D02*
Y153000D01*
Y147419D01*
X150777Y147503D01*
X151806Y148053D01*
X152707Y148793D01*
X153447Y149694D01*
X153725Y150214D01*
X154310Y150248D01*
X154934Y149434D01*
X155978Y148633D01*
X157195Y148129D01*
X158500Y147957D01*
X159805Y148129D01*
X161022Y148633D01*
X162066Y149434D01*
X162867Y150478D01*
X163229Y151352D01*
X163771D01*
X164132Y150478D01*
X164934Y149434D01*
X165978Y148633D01*
X167195Y148129D01*
X168500Y147957D01*
X169805Y148129D01*
X171022Y148633D01*
X172066Y149434D01*
X172868Y150478D01*
X173371Y151695D01*
X173543Y153000D01*
X173371Y154305D01*
X172868Y155522D01*
X172066Y156566D01*
X171022Y157368D01*
X169805Y157871D01*
X168500Y158043D01*
X167195Y157871D01*
X165978Y157368D01*
X164934Y156566D01*
X164132Y155522D01*
X163771Y154648D01*
X163229D01*
X162867Y155522D01*
X162066Y156566D01*
X161022Y157368D01*
X159805Y157871D01*
X158500Y158043D01*
X157195Y157871D01*
X155978Y157368D01*
X154934Y156566D01*
X154310Y155753D01*
X153725Y155786D01*
X153447Y156306D01*
X152707Y157207D01*
X151806Y157947D01*
X150777Y158497D01*
X150500Y158581D01*
D02*
G37*
G36*
X331000Y180543D02*
X329695Y180371D01*
X328478Y179867D01*
X327434Y179066D01*
X326632Y178022D01*
X326129Y176805D01*
X325957Y175500D01*
X326129Y174195D01*
X326632Y172978D01*
X327434Y171934D01*
X328478Y171133D01*
X329352Y170771D01*
Y170229D01*
X328478Y169868D01*
X327434Y169066D01*
X326632Y168022D01*
X326129Y166805D01*
X325957Y165500D01*
X326129Y164195D01*
X326632Y162978D01*
X327434Y161934D01*
X328478Y161133D01*
X329352Y160771D01*
Y160229D01*
X328478Y159868D01*
X327434Y159066D01*
X326632Y158022D01*
X326129Y156805D01*
X325957Y155500D01*
X326129Y154195D01*
X326632Y152978D01*
X327434Y151934D01*
X328247Y151310D01*
X328214Y150725D01*
X327694Y150447D01*
X326793Y149707D01*
X326053Y148806D01*
X325503Y147777D01*
X325419Y147500D01*
X336581D01*
X336497Y147777D01*
X335947Y148806D01*
X335207Y149707D01*
X334306Y150447D01*
X333786Y150725D01*
X333752Y151310D01*
X334566Y151934D01*
X335367Y152978D01*
X335871Y154195D01*
X336043Y155500D01*
X335871Y156805D01*
X335367Y158022D01*
X334566Y159066D01*
X333522Y159868D01*
X332648Y160229D01*
Y160771D01*
X333522Y161133D01*
X334566Y161934D01*
X335367Y162978D01*
X335871Y164195D01*
X336043Y165500D01*
X335871Y166805D01*
X335367Y168022D01*
X334566Y169066D01*
X333522Y169868D01*
X332648Y170229D01*
Y170771D01*
X333522Y171133D01*
X334566Y171934D01*
X335367Y172978D01*
X335871Y174195D01*
X336043Y175500D01*
X335871Y176805D01*
X335367Y178022D01*
X334566Y179066D01*
X333522Y179867D01*
X332305Y180371D01*
X331000Y180543D01*
D02*
G37*
G36*
X61004Y151917D02*
X55366D01*
Y146279D01*
X56400Y146593D01*
X57771Y147326D01*
X58972Y148311D01*
X59958Y149513D01*
X60691Y150883D01*
X61004Y151917D01*
D02*
G37*
G36*
X51366D02*
X45728D01*
X46042Y150883D01*
X46774Y149513D01*
X47760Y148311D01*
X48962Y147326D01*
X50332Y146593D01*
X51366Y146279D01*
Y151917D01*
D02*
G37*
G36*
X100610Y161845D02*
X99064Y161693D01*
X97576Y161242D01*
X96206Y160509D01*
X95004Y159523D01*
X94018Y158322D01*
X93286Y156951D01*
X92835Y155464D01*
X92682Y153917D01*
X92835Y152371D01*
X93286Y150883D01*
X94018Y149513D01*
X95004Y148311D01*
X96206Y147326D01*
X97576Y146593D01*
X99064Y146142D01*
X100610Y145989D01*
X102157Y146142D01*
X103644Y146593D01*
X105015Y147326D01*
X106216Y148311D01*
X107202Y149513D01*
X107935Y150883D01*
X108386Y152371D01*
X108538Y153917D01*
X108386Y155464D01*
X107935Y156951D01*
X107202Y158322D01*
X106216Y159523D01*
X105015Y160509D01*
X103644Y161242D01*
X102157Y161693D01*
X100610Y161845D01*
D02*
G37*
G36*
X381000Y145543D02*
X379695Y145371D01*
X378478Y144868D01*
X377434Y144066D01*
X376632Y143022D01*
X376129Y141805D01*
X375957Y140500D01*
X376129Y139195D01*
X376632Y137978D01*
X377434Y136934D01*
X378478Y136133D01*
X379352Y135771D01*
Y135229D01*
X378478Y134868D01*
X377434Y134066D01*
X376632Y133022D01*
X376129Y131805D01*
X375957Y130500D01*
X376129Y129195D01*
X376632Y127978D01*
X377434Y126934D01*
X378478Y126133D01*
X379695Y125629D01*
X381000Y125457D01*
X382305Y125629D01*
X383522Y126133D01*
X384566Y126934D01*
X385367Y127978D01*
X385871Y129195D01*
X386043Y130500D01*
X385871Y131805D01*
X385367Y133022D01*
X384566Y134066D01*
X383522Y134868D01*
X382648Y135229D01*
Y135771D01*
X383522Y136133D01*
X384566Y136934D01*
X385367Y137978D01*
X385871Y139195D01*
X386043Y140500D01*
X385871Y141805D01*
X385367Y143022D01*
X384566Y144066D01*
X383522Y144868D01*
X382305Y145371D01*
X381000Y145543D01*
D02*
G37*
G36*
X212500Y116487D02*
X211468Y116351D01*
X210507Y115953D01*
X209681Y115319D01*
X209474Y115049D01*
X180000D01*
X179025Y114855D01*
X178198Y114302D01*
X165698Y101802D01*
X165145Y100976D01*
X164951Y100000D01*
Y43026D01*
X164681Y42819D01*
X164047Y41993D01*
X163649Y41032D01*
X163513Y40000D01*
X163649Y38968D01*
X164047Y38007D01*
X164681Y37181D01*
X165507Y36547D01*
X166468Y36149D01*
X167500Y36013D01*
X168532Y36149D01*
X169493Y36547D01*
X170319Y37181D01*
X170953Y38007D01*
X171351Y38968D01*
X171487Y40000D01*
X171351Y41032D01*
X170953Y41993D01*
X170319Y42819D01*
X170049Y43026D01*
Y98944D01*
X181056Y109951D01*
X209474D01*
X209681Y109681D01*
X210507Y109047D01*
X211468Y108649D01*
X212500Y108513D01*
X213532Y108649D01*
X214493Y109047D01*
X215319Y109681D01*
X215953Y110507D01*
X216351Y111468D01*
X216487Y112500D01*
X216351Y113532D01*
X215953Y114493D01*
X215319Y115319D01*
X214493Y115953D01*
X213532Y116351D01*
X212500Y116487D01*
D02*
G37*
G36*
X55366Y113524D02*
Y107886D01*
X61004D01*
X60691Y108920D01*
X59958Y110290D01*
X58972Y111492D01*
X57771Y112478D01*
X56400Y113210D01*
X55366Y113524D01*
D02*
G37*
G36*
X51366D02*
X50332Y113210D01*
X48962Y112478D01*
X47760Y111492D01*
X46774Y110290D01*
X46042Y108920D01*
X45728Y107886D01*
X51366D01*
Y113524D01*
D02*
G37*
G36*
X445500Y110581D02*
X445223Y110497D01*
X444194Y109947D01*
X443293Y109207D01*
X442553Y108306D01*
X442275Y107786D01*
X441690Y107753D01*
X441066Y108566D01*
X440022Y109368D01*
X438805Y109871D01*
X437500Y110043D01*
X436195Y109871D01*
X434978Y109368D01*
X433934Y108566D01*
X433133Y107522D01*
X432629Y106305D01*
X432457Y105000D01*
X432629Y103695D01*
X433133Y102478D01*
X433934Y101434D01*
X434978Y100633D01*
X435852Y100271D01*
Y99729D01*
X434978Y99367D01*
X433934Y98566D01*
X433133Y97522D01*
X432629Y96305D01*
X432457Y95000D01*
X432629Y93695D01*
X433133Y92478D01*
X433934Y91434D01*
X434978Y90632D01*
X435852Y90271D01*
Y89729D01*
X434978Y89368D01*
X433934Y88566D01*
X433133Y87522D01*
X432629Y86305D01*
X432457Y85000D01*
X432629Y83695D01*
X433133Y82478D01*
X433934Y81434D01*
X434978Y80633D01*
X435852Y80271D01*
Y79729D01*
X434978Y79368D01*
X433934Y78566D01*
X433133Y77522D01*
X432629Y76305D01*
X432457Y75000D01*
X432629Y73695D01*
X433133Y72478D01*
X433934Y71434D01*
X434978Y70632D01*
X435852Y70271D01*
Y69729D01*
X434978Y69367D01*
X433934Y68566D01*
X433133Y67522D01*
X432629Y66305D01*
X432457Y65000D01*
X432629Y63695D01*
X433133Y62478D01*
X433934Y61434D01*
X434978Y60632D01*
X436195Y60129D01*
X437500Y59957D01*
X438805Y60129D01*
X440022Y60632D01*
X441066Y61434D01*
X441690Y62248D01*
X442275Y62214D01*
X442553Y61694D01*
X443293Y60793D01*
X444194Y60053D01*
X445223Y59503D01*
X445500Y59419D01*
Y65000D01*
X447500D01*
Y67000D01*
X453081D01*
X452997Y67277D01*
X452447Y68306D01*
X451707Y69207D01*
X451135Y69677D01*
Y70323D01*
X451707Y70793D01*
X452447Y71694D01*
X452997Y72723D01*
X453081Y73000D01*
X447500D01*
Y77000D01*
X453081D01*
X452997Y77277D01*
X452447Y78306D01*
X451707Y79207D01*
X450806Y79947D01*
X450286Y80225D01*
X450252Y80810D01*
X451066Y81434D01*
X451867Y82478D01*
X452371Y83695D01*
X452543Y85000D01*
X452371Y86305D01*
X451867Y87522D01*
X451066Y88566D01*
X450022Y89368D01*
X449148Y89729D01*
Y90271D01*
X450022Y90632D01*
X451066Y91434D01*
X451867Y92478D01*
X452371Y93695D01*
X452543Y95000D01*
X452371Y96305D01*
X451867Y97522D01*
X451066Y98566D01*
X450252Y99190D01*
X450286Y99775D01*
X450806Y100053D01*
X451707Y100793D01*
X452447Y101694D01*
X452997Y102723D01*
X453081Y103000D01*
X447500D01*
Y105000D01*
X445500D01*
Y110581D01*
D02*
G37*
G36*
X449500D02*
Y107000D01*
X453081D01*
X452997Y107277D01*
X452447Y108306D01*
X451707Y109207D01*
X450806Y109947D01*
X449777Y110497D01*
X449500Y110581D01*
D02*
G37*
G36*
X200500Y108081D02*
X200223Y107997D01*
X199194Y107447D01*
X198293Y106707D01*
X197553Y105806D01*
X197275Y105286D01*
X196690Y105253D01*
X196066Y106066D01*
X195022Y106868D01*
X193805Y107371D01*
X192500Y107543D01*
X191195Y107371D01*
X189978Y106868D01*
X188934Y106066D01*
X188133Y105022D01*
X187771Y104148D01*
X187229D01*
X186867Y105022D01*
X186066Y106066D01*
X185022Y106868D01*
X183805Y107371D01*
X182500Y107543D01*
X181195Y107371D01*
X179978Y106868D01*
X178934Y106066D01*
X178132Y105022D01*
X177629Y103805D01*
X177457Y102500D01*
X177629Y101195D01*
X178132Y99978D01*
X178934Y98934D01*
X179978Y98132D01*
X181195Y97629D01*
X182500Y97457D01*
X183805Y97629D01*
X185022Y98132D01*
X186066Y98934D01*
X186867Y99978D01*
X187229Y100852D01*
X187771D01*
X188133Y99978D01*
X188934Y98934D01*
X189978Y98132D01*
X191195Y97629D01*
X192500Y97457D01*
X193805Y97629D01*
X195022Y98132D01*
X196066Y98934D01*
X196690Y99748D01*
X197275Y99714D01*
X197553Y99194D01*
X198293Y98293D01*
X199194Y97553D01*
X200223Y97003D01*
X200500Y96919D01*
Y102500D01*
Y108081D01*
D02*
G37*
G36*
X147000Y103081D02*
Y99500D01*
X150581D01*
X150497Y99777D01*
X149947Y100806D01*
X149207Y101707D01*
X148306Y102447D01*
X147277Y102997D01*
X147000Y103081D01*
D02*
G37*
G36*
X143000Y103081D02*
X142723Y102997D01*
X141694Y102447D01*
X140793Y101707D01*
X140053Y100806D01*
X139503Y99777D01*
X139419Y99500D01*
X143000D01*
Y103081D01*
D02*
G37*
G36*
X61004Y103886D02*
X55366D01*
Y98248D01*
X56400Y98561D01*
X57771Y99294D01*
X58972Y100280D01*
X59958Y101481D01*
X60691Y102852D01*
X61004Y103886D01*
D02*
G37*
G36*
X51366D02*
X45728D01*
X46042Y102852D01*
X46774Y101481D01*
X47760Y100280D01*
X48962Y99294D01*
X50332Y98561D01*
X51366Y98248D01*
Y103886D01*
D02*
G37*
G36*
X100610Y113814D02*
X99064Y113661D01*
X97576Y113210D01*
X96206Y112478D01*
X95004Y111492D01*
X94018Y110290D01*
X93286Y108920D01*
X92835Y107432D01*
X92682Y105886D01*
X92835Y104339D01*
X93286Y102852D01*
X94018Y101481D01*
X95004Y100280D01*
X96206Y99294D01*
X97576Y98561D01*
X99064Y98110D01*
X100610Y97958D01*
X102157Y98110D01*
X103644Y98561D01*
X105015Y99294D01*
X106216Y100280D01*
X107202Y101481D01*
X107935Y102852D01*
X108386Y104339D01*
X108538Y105886D01*
X108386Y107432D01*
X107935Y108920D01*
X107202Y110290D01*
X106216Y111492D01*
X105015Y112478D01*
X103644Y113210D01*
X102157Y113661D01*
X100610Y113814D01*
D02*
G37*
G36*
X234500Y108081D02*
Y102500D01*
Y96919D01*
X234777Y97003D01*
X235806Y97553D01*
X236707Y98293D01*
X237447Y99194D01*
X237725Y99714D01*
X238310Y99748D01*
X238934Y98934D01*
X239978Y98132D01*
X241195Y97629D01*
X242500Y97457D01*
X243805Y97629D01*
X245022Y98132D01*
X246066Y98934D01*
X246867Y99978D01*
X247229Y100852D01*
X247771D01*
X248132Y99978D01*
X248934Y98934D01*
X249978Y98132D01*
X251195Y97629D01*
X252500Y97457D01*
X253805Y97629D01*
X255022Y98132D01*
X256066Y98934D01*
X256868Y99978D01*
X257371Y101195D01*
X257543Y102500D01*
X257371Y103805D01*
X256868Y105022D01*
X256066Y106066D01*
X255022Y106868D01*
X253805Y107371D01*
X252500Y107543D01*
X251195Y107371D01*
X249978Y106868D01*
X248934Y106066D01*
X248132Y105022D01*
X247771Y104148D01*
X247229D01*
X246867Y105022D01*
X246066Y106066D01*
X245022Y106868D01*
X243805Y107371D01*
X242500Y107543D01*
X241195Y107371D01*
X239978Y106868D01*
X238934Y106066D01*
X238310Y105253D01*
X237725Y105286D01*
X237447Y105806D01*
X236707Y106707D01*
X235806Y107447D01*
X234777Y107997D01*
X234500Y108081D01*
D02*
G37*
G36*
X300000Y140043D02*
X298695Y139871D01*
X297478Y139367D01*
X296434Y138566D01*
X295633Y137522D01*
X295129Y136305D01*
X294957Y135000D01*
X295129Y133695D01*
X295633Y132478D01*
X296434Y131434D01*
X297478Y130632D01*
X298352Y130271D01*
Y129729D01*
X297478Y129367D01*
X296434Y128566D01*
X295633Y127522D01*
X295129Y126305D01*
X294957Y125000D01*
X295129Y123695D01*
X295633Y122478D01*
X296434Y121434D01*
X297478Y120633D01*
X298352Y120271D01*
Y119729D01*
X297478Y119368D01*
X296434Y118566D01*
X295633Y117522D01*
X295129Y116305D01*
X294957Y115000D01*
X295129Y113695D01*
X295633Y112478D01*
X296434Y111434D01*
X297478Y110633D01*
X298352Y110271D01*
Y109729D01*
X297478Y109368D01*
X296434Y108566D01*
X295633Y107522D01*
X295129Y106305D01*
X294957Y105000D01*
X295129Y103695D01*
X295633Y102478D01*
X296434Y101434D01*
X297248Y100810D01*
X297214Y100225D01*
X296694Y99947D01*
X295793Y99207D01*
X295053Y98306D01*
X294503Y97277D01*
X294419Y97000D01*
X300000D01*
X305581D01*
X305497Y97277D01*
X304947Y98306D01*
X304207Y99207D01*
X303306Y99947D01*
X302786Y100225D01*
X302752Y100810D01*
X303566Y101434D01*
X304367Y102478D01*
X304871Y103695D01*
X305043Y105000D01*
X304871Y106305D01*
X304367Y107522D01*
X303566Y108566D01*
X302522Y109368D01*
X301648Y109729D01*
Y110271D01*
X302522Y110633D01*
X303566Y111434D01*
X304367Y112478D01*
X304871Y113695D01*
X305043Y115000D01*
X304871Y116305D01*
X304367Y117522D01*
X303566Y118566D01*
X302522Y119368D01*
X301648Y119729D01*
Y120271D01*
X302522Y120633D01*
X303566Y121434D01*
X304367Y122478D01*
X304871Y123695D01*
X305043Y125000D01*
X304871Y126305D01*
X304367Y127522D01*
X303566Y128566D01*
X302522Y129367D01*
X301648Y129729D01*
Y130271D01*
X302522Y130632D01*
X303566Y131434D01*
X304367Y132478D01*
X304871Y133695D01*
X305043Y135000D01*
X304871Y136305D01*
X304367Y137522D01*
X303566Y138566D01*
X302522Y139367D01*
X301305Y139871D01*
X300000Y140043D01*
D02*
G37*
G36*
X204500Y108081D02*
Y102500D01*
Y96919D01*
X204777Y97003D01*
X205806Y97553D01*
X206707Y98293D01*
X207447Y99194D01*
X207725Y99714D01*
X208310Y99748D01*
X208934Y98934D01*
X209978Y98132D01*
X211195Y97629D01*
X212500Y97457D01*
X213805Y97629D01*
X215022Y98132D01*
X216066Y98934D01*
X216867Y99978D01*
X217229Y100852D01*
X217771D01*
X218132Y99978D01*
X218934Y98934D01*
X219978Y98132D01*
X221195Y97629D01*
X222500Y97457D01*
X223805Y97629D01*
X225022Y98132D01*
X226066Y98934D01*
X226690Y99748D01*
X227275Y99714D01*
X227553Y99194D01*
X228293Y98293D01*
X229194Y97553D01*
X230223Y97003D01*
X230500Y96919D01*
Y102500D01*
Y108081D01*
X230223Y107997D01*
X229194Y107447D01*
X228293Y106707D01*
X227553Y105806D01*
X227275Y105286D01*
X226690Y105253D01*
X226066Y106066D01*
X225022Y106868D01*
X223805Y107371D01*
X222500Y107543D01*
X221195Y107371D01*
X219978Y106868D01*
X218934Y106066D01*
X218132Y105022D01*
X217771Y104148D01*
X217229D01*
X216867Y105022D01*
X216066Y106066D01*
X215022Y106868D01*
X213805Y107371D01*
X212500Y107543D01*
X211195Y107371D01*
X209978Y106868D01*
X208934Y106066D01*
X208310Y105253D01*
X207725Y105286D01*
X207447Y105806D01*
X206707Y106707D01*
X205806Y107447D01*
X204777Y107997D01*
X204500Y108081D01*
D02*
G37*
G36*
X150581Y95500D02*
X147000D01*
Y91919D01*
X147277Y92003D01*
X148306Y92553D01*
X149207Y93293D01*
X149947Y94194D01*
X150497Y95223D01*
X150581Y95500D01*
D02*
G37*
G36*
X143000D02*
X139419D01*
X139503Y95223D01*
X140053Y94194D01*
X140793Y93293D01*
X141694Y92553D01*
X142723Y92003D01*
X143000Y91919D01*
Y95500D01*
D02*
G37*
G36*
X76988Y105940D02*
X75441Y105787D01*
X73954Y105336D01*
X72584Y104604D01*
X71382Y103618D01*
X70396Y102416D01*
X69664Y101046D01*
X69213Y99559D01*
X69060Y98012D01*
X69213Y96465D01*
X69664Y94978D01*
X70396Y93607D01*
X71382Y92406D01*
X72584Y91420D01*
X73954Y90687D01*
X75441Y90236D01*
X76988Y90084D01*
X78535Y90236D01*
X80022Y90687D01*
X81393Y91420D01*
X82594Y92406D01*
X83580Y93607D01*
X84313Y94978D01*
X84764Y96465D01*
X84916Y98012D01*
X84764Y99559D01*
X84313Y101046D01*
X83580Y102416D01*
X82594Y103618D01*
X81393Y104604D01*
X80022Y105336D01*
X78535Y105787D01*
X76988Y105940D01*
D02*
G37*
G36*
X305581Y93000D02*
X302000D01*
Y89419D01*
X302277Y89503D01*
X303306Y90053D01*
X304207Y90793D01*
X304947Y91694D01*
X305497Y92723D01*
X305581Y93000D01*
D02*
G37*
G36*
X298000D02*
X294419D01*
X294503Y92723D01*
X295053Y91694D01*
X295793Y90793D01*
X296694Y90053D01*
X297723Y89503D01*
X298000Y89419D01*
Y93000D01*
D02*
G37*
G36*
X200500Y78081D02*
X200223Y77997D01*
X199194Y77447D01*
X198293Y76707D01*
X197553Y75806D01*
X197275Y75286D01*
X196690Y75252D01*
X196066Y76066D01*
X195022Y76868D01*
X193805Y77371D01*
X192500Y77543D01*
X191195Y77371D01*
X189978Y76868D01*
X188934Y76066D01*
X188133Y75022D01*
X187771Y74148D01*
X187229D01*
X186867Y75022D01*
X186066Y76066D01*
X185022Y76868D01*
X183805Y77371D01*
X182500Y77543D01*
X181195Y77371D01*
X179978Y76868D01*
X178934Y76066D01*
X178132Y75022D01*
X177629Y73805D01*
X177457Y72500D01*
X177629Y71195D01*
X178132Y69978D01*
X178934Y68934D01*
X179978Y68133D01*
X181195Y67629D01*
X182500Y67457D01*
X183805Y67629D01*
X185022Y68133D01*
X186066Y68934D01*
X186867Y69978D01*
X187229Y70852D01*
X187771D01*
X188133Y69978D01*
X188934Y68934D01*
X189978Y68133D01*
X191195Y67629D01*
X192500Y67457D01*
X193805Y67629D01*
X195022Y68133D01*
X196066Y68934D01*
X196690Y69748D01*
X197275Y69714D01*
X197553Y69194D01*
X198293Y68293D01*
X199194Y67553D01*
X200223Y67003D01*
X200500Y66919D01*
Y72500D01*
Y78081D01*
D02*
G37*
G36*
X234500Y78081D02*
Y72500D01*
Y66919D01*
X234777Y67003D01*
X235806Y67553D01*
X236707Y68293D01*
X237447Y69194D01*
X237725Y69714D01*
X238310Y69748D01*
X238934Y68934D01*
X239978Y68133D01*
X241195Y67629D01*
X242500Y67457D01*
X243805Y67629D01*
X245022Y68133D01*
X246066Y68934D01*
X246867Y69978D01*
X247229Y70852D01*
X247771D01*
X248132Y69978D01*
X248934Y68934D01*
X249978Y68133D01*
X251195Y67629D01*
X252500Y67457D01*
X253805Y67629D01*
X255022Y68133D01*
X256066Y68934D01*
X256868Y69978D01*
X257371Y71195D01*
X257543Y72500D01*
X257371Y73805D01*
X256868Y75022D01*
X256066Y76066D01*
X255022Y76868D01*
X253805Y77371D01*
X252500Y77543D01*
X251195Y77371D01*
X249978Y76868D01*
X248934Y76066D01*
X248132Y75022D01*
X247771Y74148D01*
X247229D01*
X246867Y75022D01*
X246066Y76066D01*
X245022Y76868D01*
X243805Y77371D01*
X242500Y77543D01*
X241195Y77371D01*
X239978Y76868D01*
X238934Y76066D01*
X238310Y75252D01*
X237725Y75286D01*
X237447Y75806D01*
X236707Y76707D01*
X235806Y77447D01*
X234777Y77997D01*
X234500Y78081D01*
D02*
G37*
G36*
X145000Y77543D02*
X143695Y77371D01*
X142478Y76868D01*
X141434Y76066D01*
X140632Y75022D01*
X140129Y73805D01*
X139957Y72500D01*
X140129Y71195D01*
X140632Y69978D01*
X141434Y68934D01*
X142478Y68133D01*
X143695Y67629D01*
X145000Y67457D01*
X146305Y67629D01*
X147522Y68133D01*
X148566Y68934D01*
X149367Y69978D01*
X149871Y71195D01*
X150043Y72500D01*
X149871Y73805D01*
X149367Y75022D01*
X148566Y76066D01*
X147522Y76868D01*
X146305Y77371D01*
X145000Y77543D01*
D02*
G37*
G36*
X224500Y78081D02*
Y72500D01*
Y66919D01*
X224777Y67003D01*
X225806Y67553D01*
X226707Y68293D01*
X227177Y68865D01*
X227823D01*
X228293Y68293D01*
X229194Y67553D01*
X230223Y67003D01*
X230500Y66919D01*
Y72500D01*
Y78081D01*
X230223Y77997D01*
X229194Y77447D01*
X228293Y76707D01*
X227823Y76135D01*
X227177D01*
X226707Y76707D01*
X225806Y77447D01*
X224777Y77997D01*
X224500Y78081D01*
D02*
G37*
G36*
X204500D02*
Y72500D01*
Y66919D01*
X204777Y67003D01*
X205806Y67553D01*
X206707Y68293D01*
X207447Y69194D01*
X207725Y69714D01*
X208310Y69748D01*
X208934Y68934D01*
X209978Y68133D01*
X211195Y67629D01*
X212500Y67457D01*
X213805Y67629D01*
X215022Y68133D01*
X216066Y68934D01*
X216690Y69748D01*
X217275Y69714D01*
X217553Y69194D01*
X218293Y68293D01*
X219194Y67553D01*
X220223Y67003D01*
X220500Y66919D01*
Y72500D01*
Y78081D01*
X220223Y77997D01*
X219194Y77447D01*
X218293Y76707D01*
X217553Y75806D01*
X217275Y75286D01*
X216690Y75252D01*
X216066Y76066D01*
X215022Y76868D01*
X213805Y77371D01*
X212500Y77543D01*
X211195Y77371D01*
X209978Y76868D01*
X208934Y76066D01*
X208310Y75252D01*
X207725Y75286D01*
X207447Y75806D01*
X206707Y76707D01*
X205806Y77447D01*
X204777Y77997D01*
X204500Y78081D01*
D02*
G37*
G36*
X77500Y80428D02*
X75953Y80276D01*
X74466Y79825D01*
X73096Y79092D01*
X71894Y78106D01*
X70908Y76904D01*
X70175Y75534D01*
X69724Y74047D01*
X69572Y72500D01*
X69724Y70953D01*
X70175Y69466D01*
X70908Y68095D01*
X71894Y66894D01*
X73096Y65908D01*
X74466Y65175D01*
X75953Y64724D01*
X77500Y64572D01*
X79047Y64724D01*
X80534Y65175D01*
X81905Y65908D01*
X83106Y66894D01*
X84092Y68095D01*
X84825Y69466D01*
X85276Y70953D01*
X85428Y72500D01*
X85276Y74047D01*
X84825Y75534D01*
X84092Y76904D01*
X83106Y78106D01*
X81905Y79092D01*
X80534Y79825D01*
X79047Y80276D01*
X77500Y80428D01*
D02*
G37*
G36*
X396581Y163500D02*
X385419D01*
X385503Y163223D01*
X386053Y162194D01*
X386793Y161293D01*
X387694Y160553D01*
X388214Y160275D01*
X388247Y159690D01*
X387434Y159066D01*
X386632Y158022D01*
X386129Y156805D01*
X385957Y155500D01*
X386129Y154195D01*
X386632Y152978D01*
X387434Y151934D01*
X388478Y151133D01*
X389352Y150771D01*
Y150229D01*
X388478Y149867D01*
X387434Y149066D01*
X386632Y148022D01*
X386129Y146805D01*
X385957Y145500D01*
X386129Y144195D01*
X386632Y142978D01*
X387434Y141934D01*
X388478Y141132D01*
X389352Y140771D01*
Y140229D01*
X388478Y139867D01*
X387434Y139066D01*
X386632Y138022D01*
X386129Y136805D01*
X385957Y135500D01*
X386129Y134195D01*
X386632Y132978D01*
X387434Y131934D01*
X388478Y131132D01*
X389352Y130771D01*
Y130229D01*
X388478Y129867D01*
X387434Y129066D01*
X386632Y128022D01*
X386129Y126805D01*
X385957Y125500D01*
X386129Y124195D01*
X386632Y122978D01*
X387434Y121934D01*
X388478Y121133D01*
X389352Y120771D01*
Y120229D01*
X388478Y119868D01*
X387434Y119066D01*
X386632Y118022D01*
X386129Y116805D01*
X385957Y115500D01*
X386129Y114195D01*
X386632Y112978D01*
X387434Y111934D01*
X388478Y111133D01*
X389352Y110771D01*
Y110229D01*
X388478Y109868D01*
X387434Y109066D01*
X386632Y108022D01*
X386129Y106805D01*
X385957Y105500D01*
X386129Y104195D01*
X386632Y102978D01*
X387434Y101934D01*
X388478Y101133D01*
X389352Y100771D01*
Y100229D01*
X388478Y99867D01*
X387434Y99066D01*
X386632Y98022D01*
X386129Y96805D01*
X385957Y95500D01*
X386129Y94195D01*
X386632Y92978D01*
X387434Y91934D01*
X388478Y91132D01*
X389352Y90771D01*
Y90229D01*
X388478Y89868D01*
X387434Y89066D01*
X386632Y88022D01*
X386129Y86805D01*
X385957Y85500D01*
X386129Y84195D01*
X386632Y82978D01*
X387434Y81934D01*
X388478Y81133D01*
X389352Y80771D01*
Y80229D01*
X388478Y79868D01*
X387434Y79066D01*
X386632Y78022D01*
X386129Y76805D01*
X385957Y75500D01*
X386129Y74195D01*
X386632Y72978D01*
X387434Y71934D01*
X388478Y71132D01*
X389352Y70771D01*
Y70229D01*
X388478Y69867D01*
X387434Y69066D01*
X386632Y68022D01*
X386129Y66805D01*
X385957Y65500D01*
X386129Y64195D01*
X386632Y62978D01*
X387434Y61934D01*
X388478Y61133D01*
X389695Y60629D01*
X391000Y60457D01*
X392305Y60629D01*
X393522Y61133D01*
X394566Y61934D01*
X395368Y62978D01*
X395871Y64195D01*
X396043Y65500D01*
X395871Y66805D01*
X395368Y68022D01*
X394566Y69066D01*
X393522Y69867D01*
X392648Y70229D01*
Y70771D01*
X393522Y71132D01*
X394566Y71934D01*
X395368Y72978D01*
X395871Y74195D01*
X396043Y75500D01*
X395871Y76805D01*
X395368Y78022D01*
X394566Y79066D01*
X393522Y79868D01*
X392648Y80229D01*
Y80771D01*
X393522Y81133D01*
X394566Y81934D01*
X395368Y82978D01*
X395871Y84195D01*
X396043Y85500D01*
X395871Y86805D01*
X395368Y88022D01*
X394566Y89066D01*
X393522Y89868D01*
X392648Y90229D01*
Y90771D01*
X393522Y91132D01*
X394566Y91934D01*
X395368Y92978D01*
X395871Y94195D01*
X396043Y95500D01*
X395871Y96805D01*
X395368Y98022D01*
X394566Y99066D01*
X393522Y99867D01*
X392648Y100229D01*
Y100771D01*
X393522Y101133D01*
X394566Y101934D01*
X395368Y102978D01*
X395871Y104195D01*
X396043Y105500D01*
X395871Y106805D01*
X395368Y108022D01*
X394566Y109066D01*
X393522Y109868D01*
X392648Y110229D01*
Y110771D01*
X393522Y111133D01*
X394566Y111934D01*
X395368Y112978D01*
X395871Y114195D01*
X396043Y115500D01*
X395871Y116805D01*
X395368Y118022D01*
X394566Y119066D01*
X393522Y119868D01*
X392648Y120229D01*
Y120771D01*
X393522Y121133D01*
X394566Y121934D01*
X395368Y122978D01*
X395871Y124195D01*
X396043Y125500D01*
X395871Y126805D01*
X395368Y128022D01*
X394566Y129066D01*
X393522Y129867D01*
X392648Y130229D01*
Y130771D01*
X393522Y131132D01*
X394566Y131934D01*
X395368Y132978D01*
X395871Y134195D01*
X396043Y135500D01*
X395871Y136805D01*
X395368Y138022D01*
X394566Y139066D01*
X393522Y139867D01*
X392648Y140229D01*
Y140771D01*
X393522Y141132D01*
X394566Y141934D01*
X395368Y142978D01*
X395871Y144195D01*
X396043Y145500D01*
X395871Y146805D01*
X395368Y148022D01*
X394566Y149066D01*
X393522Y149867D01*
X392648Y150229D01*
Y150771D01*
X393522Y151133D01*
X394566Y151934D01*
X395368Y152978D01*
X395871Y154195D01*
X396043Y155500D01*
X395871Y156805D01*
X395368Y158022D01*
X394566Y159066D01*
X393753Y159690D01*
X393786Y160275D01*
X394306Y160553D01*
X395207Y161293D01*
X395947Y162194D01*
X396497Y163223D01*
X396581Y163500D01*
D02*
G37*
G36*
X336581Y143500D02*
X325419D01*
X325503Y143223D01*
X326053Y142194D01*
X326793Y141293D01*
X327694Y140553D01*
X328214Y140275D01*
X328247Y139690D01*
X327434Y139066D01*
X326632Y138022D01*
X326129Y136805D01*
X325957Y135500D01*
X326129Y134195D01*
X326632Y132978D01*
X327434Y131934D01*
X328478Y131132D01*
X329352Y130771D01*
Y130229D01*
X328478Y129867D01*
X327434Y129066D01*
X326632Y128022D01*
X326129Y126805D01*
X325957Y125500D01*
X326129Y124195D01*
X326632Y122978D01*
X327434Y121934D01*
X328478Y121133D01*
X329352Y120771D01*
Y120229D01*
X328478Y119868D01*
X327434Y119066D01*
X326632Y118022D01*
X326129Y116805D01*
X325957Y115500D01*
X326129Y114195D01*
X326632Y112978D01*
X327434Y111934D01*
X328478Y111133D01*
X329352Y110771D01*
Y110229D01*
X328478Y109868D01*
X327434Y109066D01*
X326632Y108022D01*
X326129Y106805D01*
X325957Y105500D01*
X326129Y104195D01*
X326632Y102978D01*
X327434Y101934D01*
X328478Y101133D01*
X329352Y100771D01*
Y100229D01*
X328478Y99867D01*
X327434Y99066D01*
X326632Y98022D01*
X326129Y96805D01*
X325957Y95500D01*
X326129Y94195D01*
X326632Y92978D01*
X327434Y91934D01*
X328478Y91132D01*
X329352Y90771D01*
Y90229D01*
X328478Y89868D01*
X327434Y89066D01*
X326632Y88022D01*
X326129Y86805D01*
X325957Y85500D01*
X326129Y84195D01*
X326632Y82978D01*
X327434Y81934D01*
X328478Y81133D01*
X329352Y80771D01*
Y80229D01*
X328478Y79868D01*
X327434Y79066D01*
X326632Y78022D01*
X326129Y76805D01*
X325957Y75500D01*
X326129Y74195D01*
X326632Y72978D01*
X327434Y71934D01*
X328478Y71132D01*
X329352Y70771D01*
Y70229D01*
X328478Y69867D01*
X327434Y69066D01*
X326632Y68022D01*
X326129Y66805D01*
X325957Y65500D01*
X326129Y64195D01*
X326632Y62978D01*
X327434Y61934D01*
X328478Y61133D01*
X329695Y60629D01*
X331000Y60457D01*
X332305Y60629D01*
X333522Y61133D01*
X334566Y61934D01*
X335367Y62978D01*
X335871Y64195D01*
X336043Y65500D01*
X335871Y66805D01*
X335367Y68022D01*
X334566Y69066D01*
X333522Y69867D01*
X332648Y70229D01*
Y70771D01*
X333522Y71132D01*
X334566Y71934D01*
X335367Y72978D01*
X335871Y74195D01*
X336043Y75500D01*
X335871Y76805D01*
X335367Y78022D01*
X334566Y79066D01*
X333522Y79868D01*
X332648Y80229D01*
Y80771D01*
X333522Y81133D01*
X334566Y81934D01*
X335367Y82978D01*
X335871Y84195D01*
X336043Y85500D01*
X335871Y86805D01*
X335367Y88022D01*
X334566Y89066D01*
X333522Y89868D01*
X332648Y90229D01*
Y90771D01*
X333522Y91132D01*
X334566Y91934D01*
X335367Y92978D01*
X335871Y94195D01*
X336043Y95500D01*
X335871Y96805D01*
X335367Y98022D01*
X334566Y99066D01*
X333522Y99867D01*
X332648Y100229D01*
Y100771D01*
X333522Y101133D01*
X334566Y101934D01*
X335367Y102978D01*
X335871Y104195D01*
X336043Y105500D01*
X335871Y106805D01*
X335367Y108022D01*
X334566Y109066D01*
X333522Y109868D01*
X332648Y110229D01*
Y110771D01*
X333522Y111133D01*
X334566Y111934D01*
X335367Y112978D01*
X335871Y114195D01*
X336043Y115500D01*
X335871Y116805D01*
X335367Y118022D01*
X334566Y119066D01*
X333522Y119868D01*
X332648Y120229D01*
Y120771D01*
X333522Y121133D01*
X334566Y121934D01*
X335367Y122978D01*
X335871Y124195D01*
X336043Y125500D01*
X335871Y126805D01*
X335367Y128022D01*
X334566Y129066D01*
X333522Y129867D01*
X332648Y130229D01*
Y130771D01*
X333522Y131132D01*
X334566Y131934D01*
X335367Y132978D01*
X335871Y134195D01*
X336043Y135500D01*
X335871Y136805D01*
X335367Y138022D01*
X334566Y139066D01*
X333752Y139690D01*
X333786Y140275D01*
X334306Y140553D01*
X335207Y141293D01*
X335947Y142194D01*
X336497Y143223D01*
X336581Y143500D01*
D02*
G37*
G36*
X453081Y63000D02*
X449500D01*
Y59419D01*
X449777Y59503D01*
X450806Y60053D01*
X451707Y60793D01*
X452447Y61694D01*
X452997Y62723D01*
X453081Y63000D01*
D02*
G37*
G36*
X52000Y52638D02*
Y47000D01*
X57638D01*
X57324Y48034D01*
X56592Y49404D01*
X55606Y50606D01*
X54404Y51592D01*
X53034Y52324D01*
X52000Y52638D01*
D02*
G37*
G36*
X48000D02*
X46966Y52324D01*
X45595Y51592D01*
X44394Y50606D01*
X43408Y49404D01*
X42676Y48034D01*
X42362Y47000D01*
X48000D01*
Y52638D01*
D02*
G37*
G36*
X57638Y43000D02*
X52000D01*
Y37362D01*
X53034Y37675D01*
X54404Y38408D01*
X55606Y39394D01*
X56592Y40595D01*
X57324Y41966D01*
X57638Y43000D01*
D02*
G37*
G36*
X48000D02*
X42362D01*
X42676Y41966D01*
X43408Y40595D01*
X44394Y39394D01*
X45595Y38408D01*
X46966Y37675D01*
X48000Y37362D01*
Y43000D01*
D02*
G37*
G36*
X305000Y68987D02*
X303968Y68851D01*
X303007Y68453D01*
X302181Y67819D01*
X301547Y66993D01*
X301149Y66032D01*
X301013Y65000D01*
X301149Y63968D01*
X301547Y63007D01*
X302181Y62181D01*
X302451Y61974D01*
Y35526D01*
X302181Y35319D01*
X301547Y34493D01*
X301149Y33532D01*
X301013Y32500D01*
X301149Y31468D01*
X301547Y30507D01*
X302181Y29681D01*
X303007Y29047D01*
X303968Y28649D01*
X305000Y28513D01*
X306032Y28649D01*
X306993Y29047D01*
X307819Y29681D01*
X308453Y30507D01*
X308851Y31468D01*
X308987Y32500D01*
X308851Y33532D01*
X308453Y34493D01*
X307819Y35319D01*
X307549Y35526D01*
Y61974D01*
X307819Y62181D01*
X308453Y63007D01*
X308851Y63968D01*
X308987Y65000D01*
X308851Y66032D01*
X308453Y66993D01*
X307819Y67819D01*
X306993Y68453D01*
X306032Y68851D01*
X305000Y68987D01*
D02*
G37*
G36*
X375000Y66487D02*
X373968Y66351D01*
X373007Y65953D01*
X372181Y65319D01*
X371547Y64493D01*
X371149Y63532D01*
X371013Y62500D01*
X371149Y61468D01*
X371547Y60507D01*
X372181Y59681D01*
X372451Y59474D01*
Y30526D01*
X372181Y30319D01*
X371547Y29493D01*
X371149Y28532D01*
X371013Y27500D01*
X371149Y26468D01*
X371547Y25507D01*
X372181Y24681D01*
X373007Y24047D01*
X373968Y23649D01*
X375000Y23513D01*
X376032Y23649D01*
X376993Y24047D01*
X377819Y24681D01*
X378453Y25507D01*
X378851Y26468D01*
X378987Y27500D01*
X378851Y28532D01*
X378453Y29493D01*
X377819Y30319D01*
X377549Y30526D01*
Y59474D01*
X377819Y59681D01*
X378453Y60507D01*
X378851Y61468D01*
X378987Y62500D01*
X378851Y63532D01*
X378453Y64493D01*
X377819Y65319D01*
X376993Y65953D01*
X376032Y66351D01*
X375000Y66487D01*
D02*
G37*
%LPD*%
D10*
X302500Y235000D02*
Y257500D01*
X145000Y225000D02*
X167500D01*
X138500Y168500D02*
Y196500D01*
X420000Y52500D02*
Y120000D01*
X180000Y112500D02*
X212500D01*
X180000Y167500D02*
X215000D01*
X167500Y100000D02*
X180000Y112500D01*
X167500Y40000D02*
Y100000D01*
X305000Y32500D02*
Y65000D01*
X375000Y27500D02*
Y62500D01*
D11*
X50000Y45000D02*
D03*
X100610Y153917D02*
D03*
X53366D02*
D03*
Y105886D02*
D03*
X100610D02*
D03*
X76988Y98012D02*
D03*
X100610Y258917D02*
D03*
X53366D02*
D03*
Y210886D02*
D03*
X100610D02*
D03*
X76988Y203012D02*
D03*
X77500Y72500D02*
D03*
X207500Y212283D02*
D03*
Y247716D02*
D03*
X92500Y347500D02*
D03*
X422500D02*
D03*
D12*
X437500Y105000D02*
D03*
Y95000D02*
D03*
Y85000D02*
D03*
Y75000D02*
D03*
Y65000D02*
D03*
X447500Y95000D02*
D03*
Y85000D02*
D03*
X280000Y210000D02*
D03*
X260000D02*
D03*
X250000D02*
D03*
X300000Y105000D02*
D03*
Y115000D02*
D03*
Y125000D02*
D03*
Y135000D02*
D03*
X331000Y65500D02*
D03*
Y75500D02*
D03*
Y85500D02*
D03*
Y95500D02*
D03*
Y105500D02*
D03*
Y115500D02*
D03*
Y125500D02*
D03*
Y135500D02*
D03*
Y155500D02*
D03*
Y165500D02*
D03*
Y175500D02*
D03*
X391000Y65500D02*
D03*
Y75500D02*
D03*
Y85500D02*
D03*
Y95500D02*
D03*
Y105500D02*
D03*
Y115500D02*
D03*
Y125500D02*
D03*
Y135500D02*
D03*
Y145500D02*
D03*
Y155500D02*
D03*
Y175500D02*
D03*
X381000Y140500D02*
D03*
Y130500D02*
D03*
X145000Y72500D02*
D03*
X190000Y185000D02*
D03*
X200000D02*
D03*
X210000D02*
D03*
X220000D02*
D03*
X230000D02*
D03*
X240000D02*
D03*
X250000D02*
D03*
X260000D02*
D03*
X280000D02*
D03*
X168500Y153000D02*
D03*
X158500D02*
D03*
X138500D02*
D03*
X128500D02*
D03*
X182500Y72500D02*
D03*
X192500D02*
D03*
X212500D02*
D03*
X242500D02*
D03*
X252500D02*
D03*
X182500Y102500D02*
D03*
X192500D02*
D03*
X212500D02*
D03*
X222500D02*
D03*
X242500D02*
D03*
X252500D02*
D03*
X412000Y219000D02*
D03*
Y209000D02*
D03*
Y199000D02*
D03*
Y189000D02*
D03*
X442000Y219000D02*
D03*
Y209000D02*
D03*
Y199000D02*
D03*
Y189000D02*
D03*
X377500Y267500D02*
D03*
X347500D02*
D03*
X357500D02*
D03*
X337500D02*
D03*
D13*
X447500Y105000D02*
D03*
Y75000D02*
D03*
Y65000D02*
D03*
X270000Y210000D02*
D03*
X300000Y95000D02*
D03*
X331000Y145500D02*
D03*
X391000Y165500D02*
D03*
X145000Y97500D02*
D03*
X270000Y185000D02*
D03*
X148500Y153000D02*
D03*
X202500Y72500D02*
D03*
X222500D02*
D03*
X232500D02*
D03*
X202500Y102500D02*
D03*
X232500D02*
D03*
X367500Y267500D02*
D03*
X327500D02*
D03*
D14*
X455000Y285000D02*
D03*
Y275000D02*
D03*
Y265000D02*
D03*
Y255000D02*
D03*
D15*
X447500Y175000D02*
D03*
X302500Y235000D02*
D03*
Y257500D02*
D03*
X145000Y225000D02*
D03*
X167500D02*
D03*
X138500Y168500D02*
D03*
Y196500D02*
D03*
X212500Y112500D02*
D03*
X420000Y120000D02*
D03*
Y52500D02*
D03*
X215000Y167500D02*
D03*
X180000D02*
D03*
X167500Y40000D02*
D03*
X305000Y65000D02*
D03*
Y32500D02*
D03*
X375000Y27500D02*
D03*
Y62500D02*
D03*
M02*
