M48
;Layer_Color=9474304
;FILE_FORMAT=2:5
INCH,TZ
;TYPE=PLATED
T1F00S00C0.03543
T2F00S00C0.03937
T3F00S00C0.05906
%
T01
X167500Y40000
X305000Y32500
X375000Y27500
X420000Y52500
X375000Y62500
X420000Y120000
X447500Y175000
X215000Y167500
X212500Y112500
X305000Y65000
X180000Y167500
X138500Y168500
Y196500
X145000Y225000
X167500
X302500Y235000
Y257500
T02
X391000Y65500
Y75500
Y85500
Y95500
Y105500
Y115500
Y125500
Y135500
Y145500
Y155500
Y175500
X412000Y189000
Y199000
Y209000
X442000
Y199000
Y189000
X437500Y105000
Y95000
Y85000
Y75000
Y65000
X447500Y85000
Y95000
X381000Y130500
Y140500
X331000Y135500
Y125500
Y115500
Y105500
Y95500
Y85500
Y75500
Y65500
X300000Y105000
Y115000
Y125000
Y135000
X331000Y155500
Y165500
Y175500
X280000Y185000
X260000
X250000
X240000
X230000
X220000
X250000Y210000
X260000
X280000
X252500Y102500
X242500
X222500
X212500
Y72500
X242500
X252500
X192500
X182500
Y102500
X192500
X168500Y153000
X158500
X138500
X128500
X190000Y185000
X200000
X210000
X145000Y72500
X337500Y267500
X347500
X357500
X377500
X412000Y219000
X442000
T03
X50000Y45000
X447500Y65000
Y75000
Y105000
X391000Y165500
X331000Y145500
X300000Y95000
X232500Y102500
Y72500
X222500
X270000Y185000
Y210000
X207500Y212283
X100610Y210886
X76988Y203012
X100610Y153917
Y105886
X76988Y98012
X77500Y72500
X145000Y97500
X148500Y153000
X202500Y102500
Y72500
X53366Y105886
Y153917
Y210886
Y258917
X100610
X92500Y347500
X207500Y247716
X327500Y267500
X367500
X455000Y265000
Y275000
Y285000
Y255000
X422500Y347500
M30
