M48
;Layer_Color=9474304
;FILE_FORMAT=2:5
INCH,TZ
;TYPE=PLATED
T1F00S00C0.03543
T2F00S00C0.03937
T3F00S00C0.05906
%
T01
X142000Y37000
X394000Y89000
X404000Y198000
X470000Y195000
Y178000
X296000Y105000
Y79000
X176000Y107000
X156000Y139000
X184000Y207000
Y229000
X404000Y255000
T02
X433500Y61500
Y71500
X443500
Y81500
Y91500
Y101500
X433500Y91500
Y81500
X423500Y136500
Y146500
Y156500
Y166500
X453500
Y156500
Y146500
Y136500
X384000Y138500
Y148500
Y158500
Y168500
Y178500
Y188500
Y198500
Y208500
X374000Y193500
Y183500
X384000Y128500
Y118500
X324000
Y128500
Y138500
Y148500
Y158500
Y168500
Y178500
Y188500
Y208500
X296000Y207000
Y197000
Y151000
Y141000
Y121000
X266000Y134000
X246000
X236000
X226000
X216000
X206000
X196000
X186000
X176000
X174500Y154500
X184500
X154500
X144500
X141000Y124591
X156000
Y83410
X141000
X81000Y331500
X296000Y217000
X324000Y218500
Y228500
X384000
X430000Y240000
X440000
X450000
X470000
X411000Y331500
T03
X53000Y43000
X97000Y44000
X443500Y61500
X433500Y101500
X296000Y131000
X256000Y134000
X263717Y196000
X228284
X296000Y187000
Y177000
X324000Y198500
X164500Y154500
X120610Y121417
X73366
Y73386
X96988Y65512
X120610Y73386
X121610Y193386
X97988Y185512
X74366Y193386
Y241417
X121610
X384000Y218500
X420000Y240000
X460000
X439405Y284000
Y304000
Y324000
Y344000
M30
