G04 Layer_Physical_Order=1*
G04 Layer_Color=255*
%FSLAX25Y25*%
%MOIN*%
G70*
G01*
G75*
%ADD10C,0.05000*%
%ADD11C,0.06000*%
%ADD12C,0.07874*%
%ADD13C,0.09843*%
%ADD14C,0.05906*%
G36*
X135503Y81133D02*
X136053Y80104D01*
X136793Y79202D01*
X137694Y78462D01*
X138470Y78048D01*
Y59000D01*
X135000D01*
Y81068D01*
X135500Y81142D01*
X135503Y81133D01*
D02*
G37*
G36*
X499649Y396500D02*
X500001Y396145D01*
X499055Y275000D01*
X500000D01*
Y260000D01*
Y123000D01*
X410000D01*
Y120000D01*
X500000D01*
Y0D01*
X413000D01*
Y-0D01*
X395000D01*
Y0D01*
X0D01*
Y396500D01*
X130000D01*
Y270000D01*
X83000D01*
Y220000D01*
X60000D01*
Y170000D01*
X82000Y170000D01*
Y98000D01*
X60000Y98000D01*
Y10000D01*
X60000Y10000D01*
X60000Y10000D01*
Y10000D01*
X405000D01*
Y15000D01*
X400000D01*
X87000Y15000D01*
D01*
X65000D01*
X65000Y93000D01*
X87000D01*
Y74451D01*
X87000Y175000D01*
X65000D01*
X65000Y215000D01*
X87000D01*
X87000Y187414D01*
Y265000D01*
X130000Y265000D01*
Y55000D01*
X138470D01*
Y38806D01*
X138149Y38032D01*
X138013Y37000D01*
X138149Y35968D01*
X138547Y35007D01*
X139181Y34181D01*
X140007Y33547D01*
X140968Y33149D01*
X142000Y33013D01*
X143032Y33149D01*
X143993Y33547D01*
X144819Y34181D01*
X145453Y35007D01*
X145851Y35968D01*
X145987Y37000D01*
X145851Y38032D01*
X145530Y38806D01*
Y55000D01*
X285000D01*
Y160000D01*
X205000D01*
Y265000D01*
X400000D01*
Y255262D01*
X399966Y255000D01*
X400000Y254738D01*
Y198262D01*
X399966Y198000D01*
X400000Y197738D01*
X400000Y99993D01*
X392781Y92773D01*
X392007Y92453D01*
X391181Y91819D01*
X390547Y90993D01*
X390149Y90032D01*
X390013Y89000D01*
X390149Y87968D01*
X390547Y87007D01*
X391181Y86181D01*
X392007Y85547D01*
X392968Y85149D01*
X394000Y85013D01*
X395032Y85149D01*
X395993Y85547D01*
X396819Y86181D01*
X397453Y87007D01*
X397774Y87781D01*
X399538Y89546D01*
X400000Y89354D01*
Y55000D01*
X405000D01*
Y95007D01*
X407962Y97970D01*
X428737D01*
X429293Y97293D01*
X430194Y96553D01*
X430783Y96238D01*
X430794Y96218D01*
X430808Y95658D01*
X429979Y95021D01*
X429187Y93990D01*
X428690Y92789D01*
X428520Y91500D01*
X428690Y90211D01*
X429187Y89010D01*
X429979Y87979D01*
X431010Y87187D01*
X432017Y86771D01*
Y86229D01*
X431010Y85812D01*
X429979Y85021D01*
X429187Y83990D01*
X428690Y82789D01*
X428520Y81500D01*
X428690Y80211D01*
X429187Y79010D01*
X429979Y77979D01*
X431010Y77188D01*
X432017Y76771D01*
Y76229D01*
X431010Y75813D01*
X429979Y75021D01*
X429187Y73990D01*
X428690Y72789D01*
X428520Y71500D01*
X428690Y70211D01*
X429187Y69010D01*
X429979Y67979D01*
X431010Y67188D01*
X432017Y66771D01*
Y66229D01*
X431010Y65812D01*
X429979Y65021D01*
X429187Y63990D01*
X428690Y62789D01*
X428520Y61500D01*
X428690Y60211D01*
X429187Y59010D01*
X429979Y57979D01*
X431010Y57187D01*
X432211Y56690D01*
X433500Y56520D01*
X434789Y56690D01*
X435990Y57187D01*
X437021Y57979D01*
X437658Y58808D01*
X438218Y58794D01*
X438238Y58783D01*
X438553Y58194D01*
X439293Y57293D01*
X440194Y56553D01*
X441223Y56003D01*
X442000Y55767D01*
Y61500D01*
X443500D01*
Y63000D01*
X449233D01*
X448997Y63777D01*
X448447Y64806D01*
X447707Y65707D01*
X446806Y66447D01*
X446217Y66762D01*
X446206Y66782D01*
X446192Y67342D01*
X447021Y67979D01*
X447813Y69010D01*
X448310Y70211D01*
X448480Y71500D01*
X448310Y72789D01*
X447813Y73990D01*
X447021Y75021D01*
X445990Y75813D01*
X444983Y76229D01*
Y76771D01*
X445990Y77188D01*
X447021Y77979D01*
X447813Y79010D01*
X448310Y80211D01*
X448480Y81500D01*
X448310Y82789D01*
X447813Y83990D01*
X447021Y85021D01*
X445990Y85812D01*
X444983Y86229D01*
Y86771D01*
X445990Y87187D01*
X447021Y87979D01*
X447813Y89010D01*
X448310Y90211D01*
X448480Y91500D01*
X448310Y92789D01*
X447813Y93990D01*
X447021Y95021D01*
X445990Y95812D01*
X444983Y96229D01*
Y96771D01*
X445990Y97188D01*
X447021Y97979D01*
X447813Y99010D01*
X448310Y100211D01*
X448480Y101500D01*
X448310Y102789D01*
X447813Y103990D01*
X447021Y105021D01*
X445990Y105813D01*
X444789Y106310D01*
X443500Y106480D01*
X442211Y106310D01*
X441010Y105813D01*
X439979Y105021D01*
X439342Y104192D01*
X438782Y104206D01*
X438762Y104217D01*
X438447Y104806D01*
X437707Y105707D01*
X436806Y106447D01*
X435777Y106997D01*
X434661Y107336D01*
X433500Y107450D01*
X432339Y107336D01*
X431223Y106997D01*
X430194Y106447D01*
X429293Y105707D01*
X428737Y105030D01*
X406500D01*
X405586Y104910D01*
X405416Y104839D01*
X405000Y105117D01*
Y115000D01*
Y123000D01*
X405000Y194097D01*
X405044Y194103D01*
X406017Y194506D01*
X406853Y195147D01*
X407494Y195983D01*
X407897Y196956D01*
X408035Y198000D01*
X407897Y199044D01*
X407530Y199930D01*
Y253070D01*
X407897Y253956D01*
X408035Y255000D01*
X407897Y256044D01*
X407494Y257017D01*
X406853Y257853D01*
X406017Y258494D01*
X405044Y258897D01*
X405000Y258903D01*
Y265105D01*
X405000D01*
Y270000D01*
X200000D01*
X200000Y154000D01*
X280000D01*
Y59000D01*
X145530D01*
Y79596D01*
X145947Y80104D01*
X146497Y81133D01*
X146836Y82249D01*
X146950Y83410D01*
X146836Y84570D01*
X146497Y85686D01*
X145947Y86715D01*
X145207Y87617D01*
X144306Y88357D01*
X143277Y88906D01*
X142161Y89245D01*
X141000Y89359D01*
X139839Y89245D01*
X138723Y88906D01*
X137694Y88357D01*
X136793Y87617D01*
X136053Y86715D01*
X135503Y85686D01*
X135500Y85676D01*
X135000Y85751D01*
Y122249D01*
X135500Y122324D01*
X135503Y122314D01*
X136053Y121285D01*
X136793Y120383D01*
X137694Y119643D01*
X138723Y119094D01*
X139839Y118755D01*
X141000Y118641D01*
X142161Y118755D01*
X143277Y119094D01*
X144306Y119643D01*
X145207Y120383D01*
X145947Y121285D01*
X146497Y122314D01*
X146836Y123430D01*
X146950Y124591D01*
X146836Y125751D01*
X146497Y126867D01*
X145947Y127896D01*
X145207Y128798D01*
X144306Y129538D01*
X143277Y130088D01*
X142161Y130426D01*
X141000Y130541D01*
X139839Y130426D01*
X138723Y130088D01*
X137694Y129538D01*
X136793Y128798D01*
X136053Y127896D01*
X135503Y126867D01*
X135500Y126858D01*
X135000Y126932D01*
Y396500D01*
X499649Y396500D01*
D02*
G37*
%LPC*%
G36*
X439405Y349950D02*
X438245Y349836D01*
X437129Y349497D01*
X436100Y348947D01*
X435198Y348207D01*
X434458Y347306D01*
X433909Y346277D01*
X433570Y345161D01*
X433456Y344000D01*
X433570Y342839D01*
X433909Y341723D01*
X434458Y340694D01*
X435198Y339793D01*
X436100Y339053D01*
X437129Y338503D01*
X438245Y338164D01*
X439405Y338050D01*
X440566Y338164D01*
X441682Y338503D01*
X442711Y339053D01*
X443613Y339793D01*
X444353Y340694D01*
X444903Y341723D01*
X445241Y342839D01*
X445355Y344000D01*
X445241Y345161D01*
X444903Y346277D01*
X444353Y347306D01*
X443613Y348207D01*
X442711Y348947D01*
X441682Y349497D01*
X440566Y349836D01*
X439405Y349950D01*
D02*
G37*
G36*
X82500Y337233D02*
Y333000D01*
X86733D01*
X86497Y333777D01*
X85947Y334806D01*
X85207Y335707D01*
X84306Y336447D01*
X83277Y336997D01*
X82500Y337233D01*
D02*
G37*
G36*
X79500D02*
X78723Y336997D01*
X77694Y336447D01*
X76793Y335707D01*
X76053Y334806D01*
X75503Y333777D01*
X75267Y333000D01*
X79500D01*
Y337233D01*
D02*
G37*
G36*
X86733Y330000D02*
X82500D01*
Y325767D01*
X83277Y326003D01*
X84306Y326553D01*
X85207Y327293D01*
X85947Y328194D01*
X86497Y329223D01*
X86733Y330000D01*
D02*
G37*
G36*
X79500D02*
X75267D01*
X75503Y329223D01*
X76053Y328194D01*
X76793Y327293D01*
X77694Y326553D01*
X78723Y326003D01*
X79500Y325767D01*
Y330000D01*
D02*
G37*
G36*
X411000Y337450D02*
X409839Y337336D01*
X408723Y336997D01*
X407694Y336447D01*
X406793Y335707D01*
X406053Y334806D01*
X405503Y333777D01*
X405164Y332661D01*
X405050Y331500D01*
X405164Y330339D01*
X405503Y329223D01*
X406053Y328194D01*
X406793Y327293D01*
X407694Y326553D01*
X408723Y326003D01*
X409839Y325664D01*
X411000Y325550D01*
X412161Y325664D01*
X413277Y326003D01*
X414306Y326553D01*
X415207Y327293D01*
X415947Y328194D01*
X416497Y329223D01*
X416836Y330339D01*
X416950Y331500D01*
X416836Y332661D01*
X416497Y333777D01*
X415947Y334806D01*
X415207Y335707D01*
X414306Y336447D01*
X413277Y336997D01*
X412161Y337336D01*
X411000Y337450D01*
D02*
G37*
G36*
X440906Y329733D02*
Y325500D01*
X445138D01*
X444903Y326277D01*
X444353Y327306D01*
X443613Y328207D01*
X442711Y328947D01*
X441682Y329497D01*
X440906Y329733D01*
D02*
G37*
G36*
X437906Y329733D02*
X437129Y329497D01*
X436100Y328947D01*
X435198Y328207D01*
X434458Y327306D01*
X433909Y326277D01*
X433673Y325500D01*
X437906D01*
Y329733D01*
D02*
G37*
G36*
X445138Y322500D02*
X440906D01*
Y318267D01*
X441682Y318503D01*
X442711Y319053D01*
X443613Y319793D01*
X444353Y320694D01*
X444903Y321723D01*
X445138Y322500D01*
D02*
G37*
G36*
X437906D02*
X433673D01*
X433909Y321723D01*
X434458Y320694D01*
X435198Y319793D01*
X436100Y319053D01*
X437129Y318503D01*
X437906Y318267D01*
Y322500D01*
D02*
G37*
G36*
X439405Y309950D02*
X438245Y309836D01*
X437129Y309497D01*
X436100Y308947D01*
X435198Y308207D01*
X434458Y307306D01*
X433909Y306277D01*
X433570Y305161D01*
X433456Y304000D01*
X433570Y302839D01*
X433909Y301723D01*
X434458Y300694D01*
X435198Y299793D01*
X436100Y299053D01*
X437129Y298503D01*
X438245Y298164D01*
X439405Y298050D01*
X440566Y298164D01*
X441682Y298503D01*
X442711Y299053D01*
X443613Y299793D01*
X444353Y300694D01*
X444903Y301723D01*
X445241Y302839D01*
X445355Y304000D01*
X445241Y305161D01*
X444903Y306277D01*
X444353Y307306D01*
X443613Y308207D01*
X442711Y308947D01*
X441682Y309497D01*
X440566Y309836D01*
X439405Y309950D01*
D02*
G37*
G36*
Y289950D02*
X438245Y289836D01*
X437129Y289497D01*
X436100Y288947D01*
X435198Y288207D01*
X434458Y287306D01*
X433909Y286277D01*
X433570Y285161D01*
X433456Y284000D01*
X433570Y282839D01*
X433909Y281723D01*
X434458Y280694D01*
X435198Y279793D01*
X436100Y279053D01*
X437129Y278503D01*
X438245Y278164D01*
X439405Y278050D01*
X440566Y278164D01*
X441682Y278503D01*
X442711Y279053D01*
X443613Y279793D01*
X444353Y280694D01*
X444903Y281723D01*
X445241Y282839D01*
X445355Y284000D01*
X445241Y285161D01*
X444903Y286277D01*
X444353Y287306D01*
X443613Y288207D01*
X442711Y288947D01*
X441682Y289497D01*
X440566Y289836D01*
X439405Y289950D01*
D02*
G37*
G36*
X75866Y247150D02*
Y242917D01*
X80099D01*
X79863Y243694D01*
X79313Y244723D01*
X78573Y245624D01*
X77672Y246364D01*
X76643Y246914D01*
X75866Y247150D01*
D02*
G37*
G36*
X72866D02*
X72089Y246914D01*
X71061Y246364D01*
X70159Y245624D01*
X69419Y244723D01*
X68869Y243694D01*
X68634Y242917D01*
X72866D01*
Y247150D01*
D02*
G37*
G36*
X418500Y245733D02*
X417723Y245497D01*
X416694Y244947D01*
X415793Y244207D01*
X415053Y243306D01*
X414503Y242277D01*
X414267Y241500D01*
X418500D01*
Y245733D01*
D02*
G37*
G36*
X80099Y239917D02*
X75866D01*
Y235685D01*
X76643Y235920D01*
X77672Y236470D01*
X78573Y237210D01*
X79313Y238112D01*
X79863Y239140D01*
X80099Y239917D01*
D02*
G37*
G36*
X72866D02*
X68634D01*
X68869Y239140D01*
X69419Y238112D01*
X70159Y237210D01*
X71061Y236470D01*
X72089Y235920D01*
X72866Y235685D01*
Y239917D01*
D02*
G37*
G36*
X121610Y247367D02*
X120449Y247253D01*
X119333Y246914D01*
X118305Y246364D01*
X117403Y245624D01*
X116663Y244723D01*
X116113Y243694D01*
X115775Y242578D01*
X115660Y241417D01*
X115775Y240257D01*
X116113Y239140D01*
X116663Y238112D01*
X117403Y237210D01*
X118305Y236470D01*
X119333Y235920D01*
X120449Y235582D01*
X121610Y235467D01*
X122771Y235582D01*
X123887Y235920D01*
X124916Y236470D01*
X125818Y237210D01*
X126557Y238112D01*
X127107Y239140D01*
X127446Y240257D01*
X127560Y241417D01*
X127446Y242578D01*
X127107Y243694D01*
X126557Y244723D01*
X125818Y245624D01*
X124916Y246364D01*
X123887Y246914D01*
X122771Y247253D01*
X121610Y247367D01*
D02*
G37*
G36*
X461500Y245733D02*
Y240000D01*
Y234267D01*
X462277Y234503D01*
X463306Y235053D01*
X464207Y235793D01*
X464947Y236694D01*
X465262Y237283D01*
X465282Y237294D01*
X465842Y237308D01*
X466479Y236479D01*
X467510Y235687D01*
X468711Y235190D01*
X470000Y235020D01*
X471289Y235190D01*
X472490Y235687D01*
X473521Y236479D01*
X474312Y237510D01*
X474810Y238711D01*
X474980Y240000D01*
X474810Y241289D01*
X474312Y242490D01*
X473521Y243521D01*
X472490Y244313D01*
X471289Y244810D01*
X470000Y244980D01*
X468711Y244810D01*
X467510Y244313D01*
X466479Y243521D01*
X465842Y242692D01*
X465282Y242706D01*
X465262Y242717D01*
X464947Y243306D01*
X464207Y244207D01*
X463306Y244947D01*
X462277Y245497D01*
X461500Y245733D01*
D02*
G37*
G36*
X421500D02*
Y240000D01*
Y234267D01*
X422277Y234503D01*
X423306Y235053D01*
X424207Y235793D01*
X424947Y236694D01*
X425262Y237283D01*
X425282Y237294D01*
X425842Y237308D01*
X426479Y236479D01*
X427510Y235687D01*
X428711Y235190D01*
X430000Y235020D01*
X431289Y235190D01*
X432490Y235687D01*
X433521Y236479D01*
X434312Y237510D01*
X434729Y238517D01*
X435271D01*
X435687Y237510D01*
X436479Y236479D01*
X437510Y235687D01*
X438711Y235190D01*
X440000Y235020D01*
X441289Y235190D01*
X442490Y235687D01*
X443521Y236479D01*
X444312Y237510D01*
X444729Y238517D01*
X445271D01*
X445687Y237510D01*
X446479Y236479D01*
X447510Y235687D01*
X448711Y235190D01*
X450000Y235020D01*
X451289Y235190D01*
X452490Y235687D01*
X453521Y236479D01*
X454158Y237308D01*
X454718Y237294D01*
X454738Y237283D01*
X455053Y236694D01*
X455793Y235793D01*
X456694Y235053D01*
X457723Y234503D01*
X458500Y234267D01*
Y240000D01*
Y245733D01*
X457723Y245497D01*
X456694Y244947D01*
X455793Y244207D01*
X455053Y243306D01*
X454738Y242717D01*
X454718Y242706D01*
X454158Y242692D01*
X453521Y243521D01*
X452490Y244313D01*
X451289Y244810D01*
X450000Y244980D01*
X448711Y244810D01*
X447510Y244313D01*
X446479Y243521D01*
X445687Y242490D01*
X445271Y241483D01*
X444729D01*
X444312Y242490D01*
X443521Y243521D01*
X442490Y244313D01*
X441289Y244810D01*
X440000Y244980D01*
X438711Y244810D01*
X437510Y244313D01*
X436479Y243521D01*
X435687Y242490D01*
X435271Y241483D01*
X434729D01*
X434312Y242490D01*
X433521Y243521D01*
X432490Y244313D01*
X431289Y244810D01*
X430000Y244980D01*
X428711Y244810D01*
X427510Y244313D01*
X426479Y243521D01*
X425842Y242692D01*
X425282Y242706D01*
X425262Y242717D01*
X424947Y243306D01*
X424207Y244207D01*
X423306Y244947D01*
X422277Y245497D01*
X421500Y245733D01*
D02*
G37*
G36*
X418500Y238500D02*
X414267D01*
X414503Y237723D01*
X415053Y236694D01*
X415793Y235793D01*
X416694Y235053D01*
X417723Y234503D01*
X418500Y234267D01*
Y238500D01*
D02*
G37*
G36*
X384000Y233480D02*
X382711Y233310D01*
X381510Y232812D01*
X380479Y232021D01*
X379688Y230990D01*
X379190Y229789D01*
X379020Y228500D01*
X379190Y227211D01*
X379688Y226010D01*
X380479Y224979D01*
X381308Y224342D01*
X381294Y223782D01*
X381283Y223762D01*
X380694Y223447D01*
X379793Y222707D01*
X379053Y221806D01*
X378503Y220777D01*
X378267Y220000D01*
X389733D01*
X389497Y220777D01*
X388947Y221806D01*
X388207Y222707D01*
X387306Y223447D01*
X386717Y223762D01*
X386706Y223782D01*
X386692Y224342D01*
X387521Y224979D01*
X388313Y226010D01*
X388810Y227211D01*
X388980Y228500D01*
X388810Y229789D01*
X388313Y230990D01*
X387521Y232021D01*
X386490Y232812D01*
X385289Y233310D01*
X384000Y233480D01*
D02*
G37*
G36*
X184000Y232987D02*
X182968Y232851D01*
X182007Y232453D01*
X181181Y231819D01*
X180547Y230993D01*
X180149Y230032D01*
X180013Y229000D01*
X180149Y227968D01*
X180470Y227194D01*
Y208806D01*
X180149Y208032D01*
X180013Y207000D01*
X180149Y205968D01*
X180547Y205007D01*
X181181Y204181D01*
X182007Y203547D01*
X182968Y203149D01*
X184000Y203013D01*
X185032Y203149D01*
X185993Y203547D01*
X186819Y204181D01*
X187453Y205007D01*
X187851Y205968D01*
X187987Y207000D01*
X187851Y208032D01*
X187530Y208806D01*
Y227194D01*
X187851Y227968D01*
X187987Y229000D01*
X187851Y230032D01*
X187453Y230993D01*
X186819Y231819D01*
X185993Y232453D01*
X185032Y232851D01*
X184000Y232987D01*
D02*
G37*
G36*
X324000Y233480D02*
X322711Y233310D01*
X321510Y232812D01*
X320479Y232021D01*
X319688Y230990D01*
X319190Y229789D01*
X319020Y228500D01*
X319190Y227211D01*
X319688Y226010D01*
X320479Y224979D01*
X321510Y224187D01*
X322517Y223771D01*
Y223229D01*
X321510Y222813D01*
X320479Y222021D01*
X319688Y220990D01*
X319190Y219789D01*
X319020Y218500D01*
X319190Y217211D01*
X319688Y216010D01*
X320479Y214979D01*
X321510Y214188D01*
X322517Y213771D01*
Y213229D01*
X321510Y212812D01*
X320479Y212021D01*
X319688Y210990D01*
X319190Y209789D01*
X319020Y208500D01*
X319190Y207211D01*
X319688Y206010D01*
X320479Y204979D01*
X321308Y204342D01*
X321294Y203782D01*
X321283Y203762D01*
X320694Y203447D01*
X319793Y202707D01*
X319053Y201806D01*
X318503Y200777D01*
X318267Y200000D01*
X329733D01*
X329497Y200777D01*
X328947Y201806D01*
X328207Y202707D01*
X327306Y203447D01*
X326717Y203762D01*
X326706Y203782D01*
X326692Y204342D01*
X327521Y204979D01*
X328312Y206010D01*
X328810Y207211D01*
X328980Y208500D01*
X328810Y209789D01*
X328312Y210990D01*
X327521Y212021D01*
X326490Y212812D01*
X325483Y213229D01*
Y213771D01*
X326490Y214188D01*
X327521Y214979D01*
X328312Y216010D01*
X328810Y217211D01*
X328980Y218500D01*
X328810Y219789D01*
X328312Y220990D01*
X327521Y222021D01*
X326490Y222813D01*
X325483Y223229D01*
Y223771D01*
X326490Y224187D01*
X327521Y224979D01*
X328312Y226010D01*
X328810Y227211D01*
X328980Y228500D01*
X328810Y229789D01*
X328312Y230990D01*
X327521Y232021D01*
X326490Y232812D01*
X325289Y233310D01*
X324000Y233480D01*
D02*
G37*
G36*
X229784Y201733D02*
Y197500D01*
X234016D01*
X233781Y198277D01*
X233231Y199306D01*
X232491Y200207D01*
X231589Y200947D01*
X230560Y201497D01*
X229784Y201733D01*
D02*
G37*
G36*
X226783D02*
X226007Y201497D01*
X224978Y200947D01*
X224076Y200207D01*
X223336Y199306D01*
X222786Y198277D01*
X222551Y197500D01*
X226783D01*
Y201733D01*
D02*
G37*
G36*
X471500Y198657D02*
Y196500D01*
X473657D01*
X473453Y196993D01*
X472819Y197819D01*
X471993Y198453D01*
X471500Y198657D01*
D02*
G37*
G36*
X468500D02*
X468007Y198453D01*
X467181Y197819D01*
X466547Y196993D01*
X466343Y196500D01*
X468500D01*
Y198657D01*
D02*
G37*
G36*
X75866Y199118D02*
Y194886D01*
X80099D01*
X79863Y195663D01*
X79313Y196691D01*
X78573Y197593D01*
X77672Y198333D01*
X76643Y198883D01*
X75866Y199118D01*
D02*
G37*
G36*
X72866Y199118D02*
X72089Y198883D01*
X71061Y198333D01*
X70159Y197593D01*
X69419Y196691D01*
X68869Y195663D01*
X68634Y194886D01*
X72866D01*
Y199118D01*
D02*
G37*
G36*
X473657Y193500D02*
X471500D01*
Y191343D01*
X471993Y191547D01*
X472819Y192181D01*
X473453Y193007D01*
X473657Y193500D01*
D02*
G37*
G36*
X468500D02*
X466343D01*
X466547Y193007D01*
X467181Y192181D01*
X468007Y191547D01*
X468500Y191343D01*
Y193500D01*
D02*
G37*
G36*
X234016Y194500D02*
X229784D01*
Y190267D01*
X230560Y190503D01*
X231589Y191053D01*
X232491Y191793D01*
X233231Y192694D01*
X233781Y193723D01*
X234016Y194500D01*
D02*
G37*
G36*
X226783D02*
X222551D01*
X222786Y193723D01*
X223336Y192694D01*
X224076Y191793D01*
X224978Y191053D01*
X226007Y190503D01*
X226783Y190267D01*
Y194500D01*
D02*
G37*
G36*
X263717Y201950D02*
X262556Y201836D01*
X261440Y201497D01*
X260411Y200947D01*
X259509Y200207D01*
X258769Y199306D01*
X258220Y198277D01*
X257881Y197161D01*
X257767Y196000D01*
X257881Y194839D01*
X258220Y193723D01*
X258769Y192694D01*
X259509Y191793D01*
X260411Y191053D01*
X261440Y190503D01*
X262556Y190164D01*
X263717Y190050D01*
X264877Y190164D01*
X265993Y190503D01*
X267022Y191053D01*
X267924Y191793D01*
X268664Y192694D01*
X269214Y193723D01*
X269552Y194839D01*
X269666Y196000D01*
X269552Y197161D01*
X269214Y198277D01*
X268664Y199306D01*
X267924Y200207D01*
X267022Y200947D01*
X265993Y201497D01*
X264877Y201836D01*
X263717Y201950D01*
D02*
G37*
G36*
X296000Y221980D02*
X294711Y221810D01*
X293510Y221312D01*
X292479Y220521D01*
X291687Y219490D01*
X291190Y218289D01*
X291020Y217000D01*
X291190Y215711D01*
X291687Y214510D01*
X292479Y213479D01*
X293510Y212687D01*
X294517Y212271D01*
Y211729D01*
X293510Y211313D01*
X292479Y210521D01*
X291687Y209490D01*
X291190Y208289D01*
X291020Y207000D01*
X291190Y205711D01*
X291687Y204510D01*
X292479Y203479D01*
X293510Y202688D01*
X294517Y202271D01*
Y201729D01*
X293510Y201312D01*
X292479Y200521D01*
X291687Y199490D01*
X291190Y198289D01*
X291020Y197000D01*
X291190Y195711D01*
X291687Y194510D01*
X292479Y193479D01*
X293308Y192842D01*
X293294Y192282D01*
X293283Y192262D01*
X292694Y191947D01*
X291793Y191207D01*
X291053Y190306D01*
X290503Y189277D01*
X290267Y188500D01*
X296000D01*
X301733D01*
X301497Y189277D01*
X300947Y190306D01*
X300207Y191207D01*
X299306Y191947D01*
X298717Y192262D01*
X298706Y192282D01*
X298692Y192842D01*
X299521Y193479D01*
X300312Y194510D01*
X300810Y195711D01*
X300980Y197000D01*
X300810Y198289D01*
X300312Y199490D01*
X299521Y200521D01*
X298490Y201312D01*
X297483Y201729D01*
Y202271D01*
X298490Y202688D01*
X299521Y203479D01*
X300312Y204510D01*
X300810Y205711D01*
X300980Y207000D01*
X300810Y208289D01*
X300312Y209490D01*
X299521Y210521D01*
X298490Y211313D01*
X297483Y211729D01*
Y212271D01*
X298490Y212687D01*
X299521Y213479D01*
X300312Y214510D01*
X300810Y215711D01*
X300980Y217000D01*
X300810Y218289D01*
X300312Y219490D01*
X299521Y220521D01*
X298490Y221312D01*
X297289Y221810D01*
X296000Y221980D01*
D02*
G37*
G36*
X80099Y191886D02*
X75866D01*
Y187653D01*
X76643Y187889D01*
X77672Y188439D01*
X78573Y189179D01*
X79313Y190080D01*
X79863Y191109D01*
X80099Y191886D01*
D02*
G37*
G36*
X72866D02*
X68634D01*
X68869Y191109D01*
X69419Y190080D01*
X70159Y189179D01*
X71061Y188439D01*
X72089Y187889D01*
X72866Y187653D01*
Y191886D01*
D02*
G37*
G36*
X121610Y199336D02*
X120449Y199221D01*
X119333Y198883D01*
X118305Y198333D01*
X117403Y197593D01*
X116663Y196691D01*
X116113Y195663D01*
X115775Y194547D01*
X115660Y193386D01*
X115775Y192225D01*
X116113Y191109D01*
X116663Y190080D01*
X117403Y189179D01*
X118305Y188439D01*
X119333Y187889D01*
X120449Y187550D01*
X121610Y187436D01*
X122771Y187550D01*
X123887Y187889D01*
X124916Y188439D01*
X125818Y189179D01*
X126557Y190080D01*
X127107Y191109D01*
X127446Y192225D01*
X127560Y193386D01*
X127446Y194547D01*
X127107Y195663D01*
X126557Y196691D01*
X125818Y197593D01*
X124916Y198333D01*
X123887Y198883D01*
X122771Y199221D01*
X121610Y199336D01*
D02*
G37*
G36*
X97988Y191462D02*
X96827Y191347D01*
X95711Y191009D01*
X94683Y190459D01*
X93781Y189719D01*
X93041Y188817D01*
X92491Y187789D01*
X92153Y186673D01*
X92038Y185512D01*
X92153Y184351D01*
X92491Y183235D01*
X93041Y182206D01*
X93781Y181305D01*
X94683Y180565D01*
X95711Y180015D01*
X96827Y179676D01*
X97988Y179562D01*
X99149Y179676D01*
X100265Y180015D01*
X101294Y180565D01*
X102195Y181305D01*
X102935Y182206D01*
X103485Y183235D01*
X103824Y184351D01*
X103938Y185512D01*
X103824Y186673D01*
X103485Y187789D01*
X102935Y188817D01*
X102195Y189719D01*
X101294Y190459D01*
X100265Y191009D01*
X99149Y191347D01*
X97988Y191462D01*
D02*
G37*
G36*
X471500Y181657D02*
Y179500D01*
X473657D01*
X473453Y179993D01*
X472819Y180819D01*
X471993Y181453D01*
X471500Y181657D01*
D02*
G37*
G36*
X468500D02*
X468007Y181453D01*
X467181Y180819D01*
X466547Y179993D01*
X466343Y179500D01*
X468500D01*
Y181657D01*
D02*
G37*
G36*
X374000Y198480D02*
X372711Y198310D01*
X371510Y197812D01*
X370479Y197021D01*
X369688Y195990D01*
X369190Y194789D01*
X369020Y193500D01*
X369190Y192211D01*
X369688Y191010D01*
X370479Y189979D01*
X371510Y189188D01*
X372517Y188771D01*
Y188229D01*
X371510Y187812D01*
X370479Y187021D01*
X369688Y185990D01*
X369190Y184789D01*
X369020Y183500D01*
X369190Y182211D01*
X369688Y181010D01*
X370479Y179979D01*
X371510Y179188D01*
X372711Y178690D01*
X374000Y178520D01*
X375289Y178690D01*
X376490Y179188D01*
X377521Y179979D01*
X378312Y181010D01*
X378810Y182211D01*
X378980Y183500D01*
X378810Y184789D01*
X378312Y185990D01*
X377521Y187021D01*
X376490Y187812D01*
X375483Y188229D01*
Y188771D01*
X376490Y189188D01*
X377521Y189979D01*
X378312Y191010D01*
X378810Y192211D01*
X378980Y193500D01*
X378810Y194789D01*
X378312Y195990D01*
X377521Y197021D01*
X376490Y197812D01*
X375289Y198310D01*
X374000Y198480D01*
D02*
G37*
G36*
X301733Y185500D02*
X296000D01*
X290267D01*
X290503Y184723D01*
X291053Y183694D01*
X291793Y182793D01*
X292365Y182323D01*
Y181677D01*
X291793Y181207D01*
X291053Y180306D01*
X290503Y179277D01*
X290267Y178500D01*
X296000D01*
X301733D01*
X301497Y179277D01*
X300947Y180306D01*
X300207Y181207D01*
X299635Y181677D01*
Y182323D01*
X300207Y182793D01*
X300947Y183694D01*
X301497Y184723D01*
X301733Y185500D01*
D02*
G37*
G36*
X473657Y176500D02*
X471500D01*
Y174343D01*
X471993Y174547D01*
X472819Y175181D01*
X473453Y176007D01*
X473657Y176500D01*
D02*
G37*
G36*
X468500D02*
X466343D01*
X466547Y176007D01*
X467181Y175181D01*
X468007Y174547D01*
X468500Y174343D01*
Y176500D01*
D02*
G37*
G36*
X301733Y175500D02*
X297500D01*
Y171267D01*
X298277Y171503D01*
X299306Y172053D01*
X300207Y172793D01*
X300947Y173694D01*
X301497Y174723D01*
X301733Y175500D01*
D02*
G37*
G36*
X294500D02*
X290267D01*
X290503Y174723D01*
X291053Y173694D01*
X291793Y172793D01*
X292694Y172053D01*
X293723Y171503D01*
X294500Y171267D01*
Y175500D01*
D02*
G37*
G36*
X163000Y160233D02*
X162223Y159997D01*
X161194Y159447D01*
X160293Y158707D01*
X159553Y157806D01*
X159238Y157217D01*
X159218Y157206D01*
X158658Y157192D01*
X158021Y158021D01*
X156990Y158812D01*
X155789Y159310D01*
X154500Y159480D01*
X153211Y159310D01*
X152010Y158812D01*
X150979Y158021D01*
X150188Y156990D01*
X149771Y155983D01*
X149229D01*
X148812Y156990D01*
X148021Y158021D01*
X146990Y158812D01*
X145789Y159310D01*
X144500Y159480D01*
X143211Y159310D01*
X142010Y158812D01*
X140979Y158021D01*
X140188Y156990D01*
X139690Y155789D01*
X139520Y154500D01*
X139690Y153211D01*
X140188Y152010D01*
X140979Y150979D01*
X142010Y150188D01*
X143211Y149690D01*
X144500Y149520D01*
X145789Y149690D01*
X146990Y150188D01*
X148021Y150979D01*
X148812Y152010D01*
X149229Y153017D01*
X149771D01*
X150188Y152010D01*
X150979Y150979D01*
X152010Y150188D01*
X153211Y149690D01*
X154500Y149520D01*
X155789Y149690D01*
X156990Y150188D01*
X158021Y150979D01*
X158658Y151808D01*
X159218Y151794D01*
X159238Y151783D01*
X159553Y151194D01*
X160293Y150293D01*
X161194Y149553D01*
X162223Y149003D01*
X163000Y148767D01*
Y154500D01*
Y160233D01*
D02*
G37*
G36*
X166000D02*
Y154500D01*
Y148767D01*
X166777Y149003D01*
X167806Y149553D01*
X168707Y150293D01*
X169447Y151194D01*
X169762Y151783D01*
X169782Y151794D01*
X170342Y151808D01*
X170979Y150979D01*
X172010Y150188D01*
X173211Y149690D01*
X174500Y149520D01*
X175789Y149690D01*
X176990Y150188D01*
X178021Y150979D01*
X178813Y152010D01*
X179229Y153017D01*
X179771D01*
X180187Y152010D01*
X180979Y150979D01*
X182010Y150188D01*
X183211Y149690D01*
X184500Y149520D01*
X185789Y149690D01*
X186990Y150188D01*
X188021Y150979D01*
X188812Y152010D01*
X189310Y153211D01*
X189480Y154500D01*
X189310Y155789D01*
X188812Y156990D01*
X188021Y158021D01*
X186990Y158812D01*
X185789Y159310D01*
X184500Y159480D01*
X183211Y159310D01*
X182010Y158812D01*
X180979Y158021D01*
X180187Y156990D01*
X179771Y155983D01*
X179229D01*
X178813Y156990D01*
X178021Y158021D01*
X176990Y158812D01*
X175789Y159310D01*
X174500Y159480D01*
X173211Y159310D01*
X172010Y158812D01*
X170979Y158021D01*
X170342Y157192D01*
X169782Y157206D01*
X169762Y157217D01*
X169447Y157806D01*
X168707Y158707D01*
X167806Y159447D01*
X166777Y159997D01*
X166000Y160233D01*
D02*
G37*
G36*
X254500Y139733D02*
X253723Y139497D01*
X252694Y138947D01*
X251793Y138207D01*
X251053Y137306D01*
X250738Y136717D01*
X250718Y136706D01*
X250158Y136692D01*
X249521Y137521D01*
X248490Y138312D01*
X247289Y138810D01*
X246000Y138980D01*
X244711Y138810D01*
X243510Y138312D01*
X242479Y137521D01*
X241687Y136490D01*
X241271Y135483D01*
X240729D01*
X240313Y136490D01*
X239521Y137521D01*
X238490Y138312D01*
X237289Y138810D01*
X236000Y138980D01*
X234711Y138810D01*
X233510Y138312D01*
X232479Y137521D01*
X231687Y136490D01*
X231271Y135483D01*
X230729D01*
X230312Y136490D01*
X229521Y137521D01*
X228490Y138312D01*
X227289Y138810D01*
X226000Y138980D01*
X224711Y138810D01*
X223510Y138312D01*
X222479Y137521D01*
X221688Y136490D01*
X221271Y135483D01*
X220729D01*
X220312Y136490D01*
X219521Y137521D01*
X218490Y138312D01*
X217289Y138810D01*
X216000Y138980D01*
X214711Y138810D01*
X213510Y138312D01*
X212479Y137521D01*
X211687Y136490D01*
X211271Y135483D01*
X210729D01*
X210313Y136490D01*
X209521Y137521D01*
X208490Y138312D01*
X207289Y138810D01*
X206000Y138980D01*
X204711Y138810D01*
X203510Y138312D01*
X202479Y137521D01*
X201688Y136490D01*
X201271Y135483D01*
X200729D01*
X200312Y136490D01*
X199521Y137521D01*
X198490Y138312D01*
X197289Y138810D01*
X196000Y138980D01*
X194711Y138810D01*
X193510Y138312D01*
X192479Y137521D01*
X191688Y136490D01*
X191271Y135483D01*
X190729D01*
X190313Y136490D01*
X189521Y137521D01*
X188490Y138312D01*
X187289Y138810D01*
X186000Y138980D01*
X184711Y138810D01*
X183510Y138312D01*
X182479Y137521D01*
X181687Y136490D01*
X181271Y135483D01*
X180729D01*
X180313Y136490D01*
X179521Y137521D01*
X178490Y138312D01*
X177289Y138810D01*
X176000Y138980D01*
X174711Y138810D01*
X173510Y138312D01*
X172479Y137521D01*
X171687Y136490D01*
X171190Y135289D01*
X171020Y134000D01*
X171190Y132711D01*
X171687Y131510D01*
X172479Y130479D01*
X173510Y129688D01*
X174711Y129190D01*
X176000Y129020D01*
X177289Y129190D01*
X178490Y129688D01*
X179521Y130479D01*
X180313Y131510D01*
X180729Y132517D01*
X181271D01*
X181687Y131510D01*
X182479Y130479D01*
X183510Y129688D01*
X184711Y129190D01*
X186000Y129020D01*
X187289Y129190D01*
X188490Y129688D01*
X189521Y130479D01*
X190313Y131510D01*
X190729Y132517D01*
X191271D01*
X191688Y131510D01*
X192479Y130479D01*
X193510Y129688D01*
X194711Y129190D01*
X196000Y129020D01*
X197289Y129190D01*
X198490Y129688D01*
X199521Y130479D01*
X200312Y131510D01*
X200729Y132517D01*
X201271D01*
X201688Y131510D01*
X202479Y130479D01*
X203510Y129688D01*
X204711Y129190D01*
X206000Y129020D01*
X207289Y129190D01*
X208490Y129688D01*
X209521Y130479D01*
X210313Y131510D01*
X210729Y132517D01*
X211271D01*
X211687Y131510D01*
X212479Y130479D01*
X213510Y129688D01*
X214711Y129190D01*
X216000Y129020D01*
X217289Y129190D01*
X218490Y129688D01*
X219521Y130479D01*
X220312Y131510D01*
X220729Y132517D01*
X221271D01*
X221688Y131510D01*
X222479Y130479D01*
X223510Y129688D01*
X224711Y129190D01*
X226000Y129020D01*
X227289Y129190D01*
X228490Y129688D01*
X229521Y130479D01*
X230312Y131510D01*
X230729Y132517D01*
X231271D01*
X231687Y131510D01*
X232479Y130479D01*
X233510Y129688D01*
X234711Y129190D01*
X236000Y129020D01*
X237289Y129190D01*
X238490Y129688D01*
X239521Y130479D01*
X240313Y131510D01*
X240729Y132517D01*
X241271D01*
X241687Y131510D01*
X242479Y130479D01*
X243510Y129688D01*
X244711Y129190D01*
X246000Y129020D01*
X247289Y129190D01*
X248490Y129688D01*
X249521Y130479D01*
X250158Y131308D01*
X250718Y131294D01*
X250738Y131283D01*
X251053Y130694D01*
X251793Y129793D01*
X252694Y129053D01*
X253723Y128503D01*
X254500Y128267D01*
Y134000D01*
Y139733D01*
D02*
G37*
G36*
X296000Y155980D02*
X294711Y155810D01*
X293510Y155313D01*
X292479Y154521D01*
X291687Y153490D01*
X291190Y152289D01*
X291020Y151000D01*
X291190Y149711D01*
X291687Y148510D01*
X292479Y147479D01*
X293510Y146687D01*
X294517Y146271D01*
Y145729D01*
X293510Y145312D01*
X292479Y144521D01*
X291687Y143490D01*
X291190Y142289D01*
X291020Y141000D01*
X291190Y139711D01*
X291687Y138510D01*
X292479Y137479D01*
X293308Y136842D01*
X293294Y136282D01*
X293283Y136262D01*
X292694Y135947D01*
X291793Y135207D01*
X291053Y134306D01*
X290503Y133277D01*
X290267Y132500D01*
X296000D01*
X301733D01*
X301497Y133277D01*
X300947Y134306D01*
X300207Y135207D01*
X299306Y135947D01*
X298717Y136262D01*
X298706Y136282D01*
X298692Y136842D01*
X299521Y137479D01*
X300312Y138510D01*
X300810Y139711D01*
X300980Y141000D01*
X300810Y142289D01*
X300312Y143490D01*
X299521Y144521D01*
X298490Y145312D01*
X297483Y145729D01*
Y146271D01*
X298490Y146687D01*
X299521Y147479D01*
X300312Y148510D01*
X300810Y149711D01*
X300980Y151000D01*
X300810Y152289D01*
X300312Y153490D01*
X299521Y154521D01*
X298490Y155313D01*
X297289Y155810D01*
X296000Y155980D01*
D02*
G37*
G36*
X453500Y171480D02*
X452211Y171310D01*
X451010Y170812D01*
X449979Y170021D01*
X449188Y168990D01*
X448690Y167789D01*
X448520Y166500D01*
X448690Y165211D01*
X449188Y164010D01*
X449979Y162979D01*
X451010Y162188D01*
X452017Y161771D01*
Y161229D01*
X451010Y160812D01*
X449979Y160021D01*
X449188Y158990D01*
X448690Y157789D01*
X448520Y156500D01*
X448690Y155211D01*
X449188Y154010D01*
X449979Y152979D01*
X451010Y152188D01*
X452017Y151771D01*
Y151229D01*
X451010Y150812D01*
X449979Y150021D01*
X449188Y148990D01*
X448690Y147789D01*
X448520Y146500D01*
X448690Y145211D01*
X449188Y144010D01*
X449979Y142979D01*
X451010Y142188D01*
X452017Y141771D01*
Y141229D01*
X451010Y140813D01*
X449979Y140021D01*
X449188Y138990D01*
X448690Y137789D01*
X448520Y136500D01*
X448690Y135211D01*
X449188Y134010D01*
X449979Y132979D01*
X451010Y132187D01*
X452211Y131690D01*
X453500Y131520D01*
X454789Y131690D01*
X455990Y132187D01*
X457021Y132979D01*
X457812Y134010D01*
X458310Y135211D01*
X458480Y136500D01*
X458310Y137789D01*
X457812Y138990D01*
X457021Y140021D01*
X455990Y140813D01*
X454983Y141229D01*
Y141771D01*
X455990Y142188D01*
X457021Y142979D01*
X457812Y144010D01*
X458310Y145211D01*
X458480Y146500D01*
X458310Y147789D01*
X457812Y148990D01*
X457021Y150021D01*
X455990Y150812D01*
X454983Y151229D01*
Y151771D01*
X455990Y152188D01*
X457021Y152979D01*
X457812Y154010D01*
X458310Y155211D01*
X458480Y156500D01*
X458310Y157789D01*
X457812Y158990D01*
X457021Y160021D01*
X455990Y160812D01*
X454983Y161229D01*
Y161771D01*
X455990Y162188D01*
X457021Y162979D01*
X457812Y164010D01*
X458310Y165211D01*
X458480Y166500D01*
X458310Y167789D01*
X457812Y168990D01*
X457021Y170021D01*
X455990Y170812D01*
X454789Y171310D01*
X453500Y171480D01*
D02*
G37*
G36*
X423500D02*
X422211Y171310D01*
X421010Y170812D01*
X419979Y170021D01*
X419187Y168990D01*
X418690Y167789D01*
X418520Y166500D01*
X418690Y165211D01*
X419187Y164010D01*
X419979Y162979D01*
X421010Y162188D01*
X422017Y161771D01*
Y161229D01*
X421010Y160812D01*
X419979Y160021D01*
X419187Y158990D01*
X418690Y157789D01*
X418520Y156500D01*
X418690Y155211D01*
X419187Y154010D01*
X419979Y152979D01*
X421010Y152188D01*
X422017Y151771D01*
Y151229D01*
X421010Y150812D01*
X419979Y150021D01*
X419187Y148990D01*
X418690Y147789D01*
X418520Y146500D01*
X418690Y145211D01*
X419187Y144010D01*
X419979Y142979D01*
X421010Y142188D01*
X422017Y141771D01*
Y141229D01*
X421010Y140813D01*
X419979Y140021D01*
X419187Y138990D01*
X418690Y137789D01*
X418520Y136500D01*
X418690Y135211D01*
X419187Y134010D01*
X419979Y132979D01*
X421010Y132187D01*
X422211Y131690D01*
X423500Y131520D01*
X424789Y131690D01*
X425990Y132187D01*
X427021Y132979D01*
X427812Y134010D01*
X428310Y135211D01*
X428480Y136500D01*
X428310Y137789D01*
X427812Y138990D01*
X427021Y140021D01*
X425990Y140813D01*
X424983Y141229D01*
Y141771D01*
X425990Y142188D01*
X427021Y142979D01*
X427812Y144010D01*
X428310Y145211D01*
X428480Y146500D01*
X428310Y147789D01*
X427812Y148990D01*
X427021Y150021D01*
X425990Y150812D01*
X424983Y151229D01*
Y151771D01*
X425990Y152188D01*
X427021Y152979D01*
X427812Y154010D01*
X428310Y155211D01*
X428480Y156500D01*
X428310Y157789D01*
X427812Y158990D01*
X427021Y160021D01*
X425990Y160812D01*
X424983Y161229D01*
Y161771D01*
X425990Y162188D01*
X427021Y162979D01*
X427812Y164010D01*
X428310Y165211D01*
X428480Y166500D01*
X428310Y167789D01*
X427812Y168990D01*
X427021Y170021D01*
X425990Y170812D01*
X424789Y171310D01*
X423500Y171480D01*
D02*
G37*
G36*
X257500Y139733D02*
Y134000D01*
Y128267D01*
X258277Y128503D01*
X259306Y129053D01*
X260207Y129793D01*
X260947Y130694D01*
X261262Y131283D01*
X261282Y131294D01*
X261842Y131308D01*
X262479Y130479D01*
X263510Y129688D01*
X264711Y129190D01*
X266000Y129020D01*
X267289Y129190D01*
X268490Y129688D01*
X269521Y130479D01*
X270312Y131510D01*
X270810Y132711D01*
X270980Y134000D01*
X270810Y135289D01*
X270312Y136490D01*
X269521Y137521D01*
X268490Y138312D01*
X267289Y138810D01*
X266000Y138980D01*
X264711Y138810D01*
X263510Y138312D01*
X262479Y137521D01*
X261842Y136692D01*
X261282Y136706D01*
X261262Y136717D01*
X260947Y137306D01*
X260207Y138207D01*
X259306Y138947D01*
X258277Y139497D01*
X257500Y139733D01*
D02*
G37*
G36*
X74866Y127150D02*
Y122917D01*
X79099D01*
X78863Y123694D01*
X78313Y124723D01*
X77573Y125625D01*
X76672Y126365D01*
X75643Y126914D01*
X74866Y127150D01*
D02*
G37*
G36*
X71866D02*
X71089Y126914D01*
X70061Y126365D01*
X69159Y125625D01*
X68419Y124723D01*
X67869Y123694D01*
X67633Y122917D01*
X71866D01*
Y127150D01*
D02*
G37*
G36*
X156000Y130541D02*
X154839Y130426D01*
X153723Y130088D01*
X152694Y129538D01*
X151793Y128798D01*
X151053Y127896D01*
X150503Y126867D01*
X150164Y125751D01*
X150050Y124591D01*
X150164Y123430D01*
X150503Y122314D01*
X151053Y121285D01*
X151793Y120383D01*
X152694Y119643D01*
X153723Y119094D01*
X154839Y118755D01*
X156000Y118641D01*
X157161Y118755D01*
X158277Y119094D01*
X159306Y119643D01*
X160207Y120383D01*
X160947Y121285D01*
X161497Y122314D01*
X161836Y123430D01*
X161950Y124591D01*
X161836Y125751D01*
X161497Y126867D01*
X160947Y127896D01*
X160207Y128798D01*
X159306Y129538D01*
X158277Y130088D01*
X157161Y130426D01*
X156000Y130541D01*
D02*
G37*
G36*
X301733Y129500D02*
X296000D01*
X290267D01*
X290503Y128723D01*
X291053Y127694D01*
X291793Y126793D01*
X292694Y126053D01*
X293283Y125738D01*
X293294Y125718D01*
X293308Y125158D01*
X292479Y124521D01*
X291687Y123490D01*
X291190Y122289D01*
X291020Y121000D01*
X291190Y119711D01*
X291687Y118510D01*
X292479Y117479D01*
X293510Y116688D01*
X294711Y116190D01*
X296000Y116020D01*
X297289Y116190D01*
X298490Y116688D01*
X299521Y117479D01*
X300312Y118510D01*
X300810Y119711D01*
X300980Y121000D01*
X300810Y122289D01*
X300312Y123490D01*
X299521Y124521D01*
X298692Y125158D01*
X298706Y125718D01*
X298717Y125738D01*
X299306Y126053D01*
X300207Y126793D01*
X300947Y127694D01*
X301497Y128723D01*
X301733Y129500D01*
D02*
G37*
G36*
X79099Y119917D02*
X74866D01*
Y115685D01*
X75643Y115920D01*
X76672Y116470D01*
X77573Y117210D01*
X78313Y118112D01*
X78863Y119140D01*
X79099Y119917D01*
D02*
G37*
G36*
X71866D02*
X67633D01*
X67869Y119140D01*
X68419Y118112D01*
X69159Y117210D01*
X70061Y116470D01*
X71089Y115920D01*
X71866Y115685D01*
Y119917D01*
D02*
G37*
G36*
X120610Y127367D02*
X119449Y127253D01*
X118333Y126914D01*
X117305Y126365D01*
X116403Y125625D01*
X115663Y124723D01*
X115113Y123694D01*
X114775Y122578D01*
X114660Y121417D01*
X114775Y120256D01*
X115113Y119140D01*
X115663Y118112D01*
X116403Y117210D01*
X117305Y116470D01*
X118333Y115920D01*
X119449Y115582D01*
X120610Y115467D01*
X121771Y115582D01*
X122887Y115920D01*
X123916Y116470D01*
X124818Y117210D01*
X125557Y118112D01*
X126107Y119140D01*
X126446Y120256D01*
X126560Y121417D01*
X126446Y122578D01*
X126107Y123694D01*
X125557Y124723D01*
X124818Y125625D01*
X123916Y126365D01*
X122887Y126914D01*
X121771Y127253D01*
X120610Y127367D01*
D02*
G37*
G36*
X389733Y217000D02*
X378267D01*
X378503Y216223D01*
X379053Y215194D01*
X379793Y214293D01*
X380694Y213553D01*
X381283Y213238D01*
X381294Y213218D01*
X381308Y212658D01*
X380479Y212021D01*
X379688Y210990D01*
X379190Y209789D01*
X379020Y208500D01*
X379190Y207211D01*
X379688Y206010D01*
X380479Y204979D01*
X381510Y204187D01*
X382517Y203771D01*
Y203229D01*
X381510Y202813D01*
X380479Y202021D01*
X379688Y200990D01*
X379190Y199789D01*
X379020Y198500D01*
X379190Y197211D01*
X379688Y196010D01*
X380479Y194979D01*
X381510Y194187D01*
X382517Y193771D01*
Y193229D01*
X381510Y192813D01*
X380479Y192021D01*
X379688Y190990D01*
X379190Y189789D01*
X379020Y188500D01*
X379190Y187211D01*
X379688Y186010D01*
X380479Y184979D01*
X381510Y184187D01*
X382517Y183771D01*
Y183229D01*
X381510Y182812D01*
X380479Y182021D01*
X379688Y180990D01*
X379190Y179789D01*
X379020Y178500D01*
X379190Y177211D01*
X379688Y176010D01*
X380479Y174979D01*
X381510Y174188D01*
X382517Y173771D01*
Y173229D01*
X381510Y172812D01*
X380479Y172021D01*
X379688Y170990D01*
X379190Y169789D01*
X379020Y168500D01*
X379190Y167211D01*
X379688Y166010D01*
X380479Y164979D01*
X381510Y164188D01*
X382517Y163771D01*
Y163229D01*
X381510Y162812D01*
X380479Y162021D01*
X379688Y160990D01*
X379190Y159789D01*
X379020Y158500D01*
X379190Y157211D01*
X379688Y156010D01*
X380479Y154979D01*
X381510Y154188D01*
X382517Y153771D01*
Y153229D01*
X381510Y152813D01*
X380479Y152021D01*
X379688Y150990D01*
X379190Y149789D01*
X379020Y148500D01*
X379190Y147211D01*
X379688Y146010D01*
X380479Y144979D01*
X381510Y144187D01*
X382517Y143771D01*
Y143229D01*
X381510Y142813D01*
X380479Y142021D01*
X379688Y140990D01*
X379190Y139789D01*
X379020Y138500D01*
X379190Y137211D01*
X379688Y136010D01*
X380479Y134979D01*
X381510Y134187D01*
X382517Y133771D01*
Y133229D01*
X381510Y132812D01*
X380479Y132021D01*
X379688Y130990D01*
X379190Y129789D01*
X379020Y128500D01*
X379190Y127211D01*
X379688Y126010D01*
X380479Y124979D01*
X381510Y124188D01*
X382517Y123771D01*
Y123229D01*
X381510Y122812D01*
X380479Y122021D01*
X379688Y120990D01*
X379190Y119789D01*
X379020Y118500D01*
X379190Y117211D01*
X379688Y116010D01*
X380479Y114979D01*
X381510Y114188D01*
X382711Y113690D01*
X384000Y113520D01*
X385289Y113690D01*
X386490Y114188D01*
X387521Y114979D01*
X388313Y116010D01*
X388810Y117211D01*
X388980Y118500D01*
X388810Y119789D01*
X388313Y120990D01*
X387521Y122021D01*
X386490Y122812D01*
X385483Y123229D01*
Y123771D01*
X386490Y124188D01*
X387521Y124979D01*
X388313Y126010D01*
X388810Y127211D01*
X388980Y128500D01*
X388810Y129789D01*
X388313Y130990D01*
X387521Y132021D01*
X386490Y132812D01*
X385483Y133229D01*
Y133771D01*
X386490Y134187D01*
X387521Y134979D01*
X388313Y136010D01*
X388810Y137211D01*
X388980Y138500D01*
X388810Y139789D01*
X388313Y140990D01*
X387521Y142021D01*
X386490Y142813D01*
X385483Y143229D01*
Y143771D01*
X386490Y144187D01*
X387521Y144979D01*
X388313Y146010D01*
X388810Y147211D01*
X388980Y148500D01*
X388810Y149789D01*
X388313Y150990D01*
X387521Y152021D01*
X386490Y152813D01*
X385483Y153229D01*
Y153771D01*
X386490Y154188D01*
X387521Y154979D01*
X388313Y156010D01*
X388810Y157211D01*
X388980Y158500D01*
X388810Y159789D01*
X388313Y160990D01*
X387521Y162021D01*
X386490Y162812D01*
X385483Y163229D01*
Y163771D01*
X386490Y164188D01*
X387521Y164979D01*
X388313Y166010D01*
X388810Y167211D01*
X388980Y168500D01*
X388810Y169789D01*
X388313Y170990D01*
X387521Y172021D01*
X386490Y172812D01*
X385483Y173229D01*
Y173771D01*
X386490Y174188D01*
X387521Y174979D01*
X388313Y176010D01*
X388810Y177211D01*
X388980Y178500D01*
X388810Y179789D01*
X388313Y180990D01*
X387521Y182021D01*
X386490Y182812D01*
X385483Y183229D01*
Y183771D01*
X386490Y184187D01*
X387521Y184979D01*
X388313Y186010D01*
X388810Y187211D01*
X388980Y188500D01*
X388810Y189789D01*
X388313Y190990D01*
X387521Y192021D01*
X386490Y192813D01*
X385483Y193229D01*
Y193771D01*
X386490Y194187D01*
X387521Y194979D01*
X388313Y196010D01*
X388810Y197211D01*
X388980Y198500D01*
X388810Y199789D01*
X388313Y200990D01*
X387521Y202021D01*
X386490Y202813D01*
X385483Y203229D01*
Y203771D01*
X386490Y204187D01*
X387521Y204979D01*
X388313Y206010D01*
X388810Y207211D01*
X388980Y208500D01*
X388810Y209789D01*
X388313Y210990D01*
X387521Y212021D01*
X386692Y212658D01*
X386706Y213218D01*
X386717Y213238D01*
X387306Y213553D01*
X388207Y214293D01*
X388947Y215194D01*
X389497Y216223D01*
X389733Y217000D01*
D02*
G37*
G36*
X329733Y197000D02*
X318267D01*
X318503Y196223D01*
X319053Y195194D01*
X319793Y194293D01*
X320694Y193553D01*
X321283Y193238D01*
X321294Y193218D01*
X321308Y192658D01*
X320479Y192021D01*
X319688Y190990D01*
X319190Y189789D01*
X319020Y188500D01*
X319190Y187211D01*
X319688Y186010D01*
X320479Y184979D01*
X321510Y184187D01*
X322517Y183771D01*
Y183229D01*
X321510Y182812D01*
X320479Y182021D01*
X319688Y180990D01*
X319190Y179789D01*
X319020Y178500D01*
X319190Y177211D01*
X319688Y176010D01*
X320479Y174979D01*
X321510Y174188D01*
X322517Y173771D01*
Y173229D01*
X321510Y172812D01*
X320479Y172021D01*
X319688Y170990D01*
X319190Y169789D01*
X319020Y168500D01*
X319190Y167211D01*
X319688Y166010D01*
X320479Y164979D01*
X321510Y164188D01*
X322517Y163771D01*
Y163229D01*
X321510Y162812D01*
X320479Y162021D01*
X319688Y160990D01*
X319190Y159789D01*
X319020Y158500D01*
X319190Y157211D01*
X319688Y156010D01*
X320479Y154979D01*
X321510Y154188D01*
X322517Y153771D01*
Y153229D01*
X321510Y152813D01*
X320479Y152021D01*
X319688Y150990D01*
X319190Y149789D01*
X319020Y148500D01*
X319190Y147211D01*
X319688Y146010D01*
X320479Y144979D01*
X321510Y144187D01*
X322517Y143771D01*
Y143229D01*
X321510Y142813D01*
X320479Y142021D01*
X319688Y140990D01*
X319190Y139789D01*
X319020Y138500D01*
X319190Y137211D01*
X319688Y136010D01*
X320479Y134979D01*
X321510Y134187D01*
X322517Y133771D01*
Y133229D01*
X321510Y132812D01*
X320479Y132021D01*
X319688Y130990D01*
X319190Y129789D01*
X319020Y128500D01*
X319190Y127211D01*
X319688Y126010D01*
X320479Y124979D01*
X321510Y124188D01*
X322517Y123771D01*
Y123229D01*
X321510Y122812D01*
X320479Y122021D01*
X319688Y120990D01*
X319190Y119789D01*
X319020Y118500D01*
X319190Y117211D01*
X319688Y116010D01*
X320479Y114979D01*
X321510Y114188D01*
X322711Y113690D01*
X324000Y113520D01*
X325289Y113690D01*
X326490Y114188D01*
X327521Y114979D01*
X328312Y116010D01*
X328810Y117211D01*
X328980Y118500D01*
X328810Y119789D01*
X328312Y120990D01*
X327521Y122021D01*
X326490Y122812D01*
X325483Y123229D01*
Y123771D01*
X326490Y124188D01*
X327521Y124979D01*
X328312Y126010D01*
X328810Y127211D01*
X328980Y128500D01*
X328810Y129789D01*
X328312Y130990D01*
X327521Y132021D01*
X326490Y132812D01*
X325483Y133229D01*
Y133771D01*
X326490Y134187D01*
X327521Y134979D01*
X328312Y136010D01*
X328810Y137211D01*
X328980Y138500D01*
X328810Y139789D01*
X328312Y140990D01*
X327521Y142021D01*
X326490Y142813D01*
X325483Y143229D01*
Y143771D01*
X326490Y144187D01*
X327521Y144979D01*
X328312Y146010D01*
X328810Y147211D01*
X328980Y148500D01*
X328810Y149789D01*
X328312Y150990D01*
X327521Y152021D01*
X326490Y152813D01*
X325483Y153229D01*
Y153771D01*
X326490Y154188D01*
X327521Y154979D01*
X328312Y156010D01*
X328810Y157211D01*
X328980Y158500D01*
X328810Y159789D01*
X328312Y160990D01*
X327521Y162021D01*
X326490Y162812D01*
X325483Y163229D01*
Y163771D01*
X326490Y164188D01*
X327521Y164979D01*
X328312Y166010D01*
X328810Y167211D01*
X328980Y168500D01*
X328810Y169789D01*
X328312Y170990D01*
X327521Y172021D01*
X326490Y172812D01*
X325483Y173229D01*
Y173771D01*
X326490Y174188D01*
X327521Y174979D01*
X328312Y176010D01*
X328810Y177211D01*
X328980Y178500D01*
X328810Y179789D01*
X328312Y180990D01*
X327521Y182021D01*
X326490Y182812D01*
X325483Y183229D01*
Y183771D01*
X326490Y184187D01*
X327521Y184979D01*
X328312Y186010D01*
X328810Y187211D01*
X328980Y188500D01*
X328810Y189789D01*
X328312Y190990D01*
X327521Y192021D01*
X326692Y192658D01*
X326706Y193218D01*
X326717Y193238D01*
X327306Y193553D01*
X328207Y194293D01*
X328947Y195194D01*
X329497Y196223D01*
X329733Y197000D01*
D02*
G37*
G36*
X156000Y142987D02*
X154968Y142851D01*
X154007Y142453D01*
X153181Y141819D01*
X152547Y140993D01*
X152149Y140032D01*
X152013Y139000D01*
X152149Y137968D01*
X152547Y137007D01*
X153181Y136181D01*
X154007Y135547D01*
X154781Y135227D01*
X172470Y117538D01*
Y108806D01*
X172149Y108032D01*
X172013Y107000D01*
X172149Y105968D01*
X172547Y105007D01*
X173181Y104181D01*
X174007Y103547D01*
X174968Y103149D01*
X176000Y103013D01*
X177032Y103149D01*
X177993Y103547D01*
X178819Y104181D01*
X179453Y105007D01*
X179851Y105968D01*
X179987Y107000D01*
X179851Y108032D01*
X179530Y108806D01*
Y119000D01*
X179410Y119914D01*
X179057Y120765D01*
X178496Y121496D01*
X159774Y140219D01*
X159453Y140993D01*
X158819Y141819D01*
X157993Y142453D01*
X157032Y142851D01*
X156000Y142987D01*
D02*
G37*
G36*
X157500Y89142D02*
Y84909D01*
X161733D01*
X161497Y85686D01*
X160947Y86715D01*
X160207Y87617D01*
X159306Y88357D01*
X158277Y88906D01*
X157500Y89142D01*
D02*
G37*
G36*
X154500Y89142D02*
X153723Y88906D01*
X152694Y88357D01*
X151793Y87617D01*
X151053Y86715D01*
X150503Y85686D01*
X150267Y84909D01*
X154500D01*
Y89142D01*
D02*
G37*
G36*
Y81909D02*
X150267D01*
X150503Y81133D01*
X151053Y80104D01*
X151793Y79202D01*
X152694Y78462D01*
X153723Y77912D01*
X154500Y77677D01*
Y81909D01*
D02*
G37*
G36*
X161733D02*
X157500D01*
Y77677D01*
X158277Y77912D01*
X159306Y78462D01*
X160207Y79202D01*
X160947Y80104D01*
X161497Y81133D01*
X161733Y81909D01*
D02*
G37*
G36*
X296000Y108987D02*
X294968Y108851D01*
X294007Y108453D01*
X293181Y107819D01*
X292547Y106993D01*
X292149Y106032D01*
X292013Y105000D01*
X292149Y103968D01*
X292470Y103194D01*
Y80806D01*
X292149Y80032D01*
X292013Y79000D01*
X292149Y77968D01*
X292547Y77007D01*
X293181Y76181D01*
X294007Y75547D01*
X294968Y75149D01*
X296000Y75013D01*
X297032Y75149D01*
X297993Y75547D01*
X298819Y76181D01*
X299453Y77007D01*
X299851Y77968D01*
X299987Y79000D01*
X299851Y80032D01*
X299530Y80806D01*
Y103194D01*
X299851Y103968D01*
X299987Y105000D01*
X299851Y106032D01*
X299453Y106993D01*
X298819Y107819D01*
X297993Y108453D01*
X297032Y108851D01*
X296000Y108987D01*
D02*
G37*
G36*
X74866Y79119D02*
Y74886D01*
X79099D01*
X78863Y75663D01*
X78313Y76691D01*
X77573Y77593D01*
X76672Y78333D01*
X75643Y78883D01*
X74866Y79119D01*
D02*
G37*
G36*
X71866Y79119D02*
X71089Y78883D01*
X70061Y78333D01*
X69159Y77593D01*
X68419Y76691D01*
X67869Y75663D01*
X67633Y74886D01*
X71866D01*
Y79119D01*
D02*
G37*
G36*
X79099Y71886D02*
X74866D01*
Y67653D01*
X75643Y67889D01*
X76672Y68439D01*
X77573Y69179D01*
X78313Y70080D01*
X78863Y71109D01*
X79099Y71886D01*
D02*
G37*
G36*
X71866D02*
X67633D01*
X67869Y71109D01*
X68419Y70080D01*
X69159Y69179D01*
X70061Y68439D01*
X71089Y67889D01*
X71866Y67653D01*
Y71886D01*
D02*
G37*
G36*
X120610Y79336D02*
X119449Y79221D01*
X118333Y78883D01*
X117305Y78333D01*
X116403Y77593D01*
X115663Y76691D01*
X115113Y75663D01*
X114775Y74547D01*
X114660Y73386D01*
X114775Y72225D01*
X115113Y71109D01*
X115663Y70080D01*
X116403Y69179D01*
X117305Y68439D01*
X118333Y67889D01*
X119449Y67550D01*
X120610Y67436D01*
X121771Y67550D01*
X122887Y67889D01*
X123916Y68439D01*
X124818Y69179D01*
X125557Y70080D01*
X126107Y71109D01*
X126446Y72225D01*
X126560Y73386D01*
X126446Y74547D01*
X126107Y75663D01*
X125557Y76691D01*
X124818Y77593D01*
X123916Y78333D01*
X122887Y78883D01*
X121771Y79221D01*
X120610Y79336D01*
D02*
G37*
G36*
X96988Y71462D02*
X95827Y71347D01*
X94711Y71009D01*
X93683Y70459D01*
X92781Y69719D01*
X92041Y68817D01*
X91491Y67789D01*
X91153Y66673D01*
X91038Y65512D01*
X91153Y64351D01*
X91491Y63235D01*
X92041Y62206D01*
X92781Y61305D01*
X93683Y60565D01*
X94711Y60015D01*
X95827Y59676D01*
X96988Y59562D01*
X98149Y59676D01*
X99265Y60015D01*
X100294Y60565D01*
X101195Y61305D01*
X101935Y62206D01*
X102485Y63235D01*
X102824Y64351D01*
X102938Y65512D01*
X102824Y66673D01*
X102485Y67789D01*
X101935Y68817D01*
X101195Y69719D01*
X100294Y70459D01*
X99265Y71009D01*
X98149Y71347D01*
X96988Y71462D01*
D02*
G37*
G36*
X449233Y60000D02*
X445000D01*
Y55767D01*
X445777Y56003D01*
X446806Y56553D01*
X447707Y57293D01*
X448447Y58194D01*
X448997Y59223D01*
X449233Y60000D01*
D02*
G37*
G36*
X54500Y48733D02*
Y44500D01*
X58733D01*
X58497Y45277D01*
X57947Y46306D01*
X57207Y47207D01*
X56306Y47947D01*
X55277Y48497D01*
X54500Y48733D01*
D02*
G37*
G36*
X51500D02*
X50723Y48497D01*
X49694Y47947D01*
X48793Y47207D01*
X48053Y46306D01*
X47503Y45277D01*
X47267Y44500D01*
X51500D01*
Y48733D01*
D02*
G37*
G36*
X97000Y49950D02*
X95839Y49836D01*
X94723Y49497D01*
X93694Y48947D01*
X92793Y48207D01*
X92053Y47306D01*
X91503Y46277D01*
X91164Y45161D01*
X91050Y44000D01*
X91164Y42839D01*
X91503Y41723D01*
X92053Y40694D01*
X92793Y39793D01*
X93694Y39053D01*
X94723Y38503D01*
X95839Y38164D01*
X97000Y38050D01*
X98161Y38164D01*
X99277Y38503D01*
X100306Y39053D01*
X101207Y39793D01*
X101947Y40694D01*
X102497Y41723D01*
X102836Y42839D01*
X102950Y44000D01*
X102836Y45161D01*
X102497Y46277D01*
X101947Y47306D01*
X101207Y48207D01*
X100306Y48947D01*
X99277Y49497D01*
X98161Y49836D01*
X97000Y49950D01*
D02*
G37*
G36*
X58733Y41500D02*
X54500D01*
Y37267D01*
X55277Y37503D01*
X56306Y38053D01*
X57207Y38793D01*
X57947Y39694D01*
X58497Y40723D01*
X58733Y41500D01*
D02*
G37*
G36*
X51500D02*
X47267D01*
X47503Y40723D01*
X48053Y39694D01*
X48793Y38793D01*
X49694Y38053D01*
X50723Y37503D01*
X51500Y37267D01*
Y41500D01*
D02*
G37*
%LPD*%
D10*
X184000Y207000D02*
Y229000D01*
X404000Y198000D02*
Y255000D01*
X156000Y139000D02*
X176000Y119000D01*
Y107000D02*
Y119000D01*
X141000Y83410D02*
X142000Y82410D01*
Y37000D02*
Y82410D01*
X296000Y79000D02*
Y105000D01*
X394000Y89000D02*
X406500Y101500D01*
X433500D01*
D11*
X404000Y198000D02*
D03*
Y255000D02*
D03*
D12*
X144500Y154500D02*
D03*
X154500D02*
D03*
X174500D02*
D03*
X184500D02*
D03*
X296000Y151000D02*
D03*
Y141000D02*
D03*
Y121000D02*
D03*
X443500Y71500D02*
D03*
Y81500D02*
D03*
Y91500D02*
D03*
Y101500D02*
D03*
X433500Y61500D02*
D03*
Y71500D02*
D03*
Y81500D02*
D03*
Y91500D02*
D03*
X470000Y240000D02*
D03*
X440000D02*
D03*
X450000D02*
D03*
X430000D02*
D03*
X176000Y134000D02*
D03*
X186000D02*
D03*
X196000D02*
D03*
X206000D02*
D03*
X216000D02*
D03*
X226000D02*
D03*
X236000D02*
D03*
X246000D02*
D03*
X266000D02*
D03*
X453500Y136500D02*
D03*
Y146500D02*
D03*
Y156500D02*
D03*
Y166500D02*
D03*
X423500Y136500D02*
D03*
Y146500D02*
D03*
Y156500D02*
D03*
Y166500D02*
D03*
X374000Y183500D02*
D03*
Y193500D02*
D03*
X384000Y228500D02*
D03*
Y208500D02*
D03*
Y198500D02*
D03*
Y188500D02*
D03*
Y178500D02*
D03*
Y168500D02*
D03*
Y158500D02*
D03*
Y148500D02*
D03*
Y138500D02*
D03*
Y128500D02*
D03*
Y118500D02*
D03*
X324000Y228500D02*
D03*
Y218500D02*
D03*
Y208500D02*
D03*
Y188500D02*
D03*
Y178500D02*
D03*
Y168500D02*
D03*
Y158500D02*
D03*
Y148500D02*
D03*
Y138500D02*
D03*
Y128500D02*
D03*
Y118500D02*
D03*
X296000Y217000D02*
D03*
Y207000D02*
D03*
Y197000D02*
D03*
D13*
X164500Y154500D02*
D03*
X53000Y43000D02*
D03*
X97000Y44000D02*
D03*
X296000Y131000D02*
D03*
X443500Y61500D02*
D03*
X433500Y101500D02*
D03*
X156000Y83410D02*
D03*
Y124591D02*
D03*
X141000D02*
D03*
Y83410D02*
D03*
X411000Y331500D02*
D03*
X81000D02*
D03*
X460000Y240000D02*
D03*
X420000D02*
D03*
X256000Y134000D02*
D03*
X439405Y344000D02*
D03*
Y324000D02*
D03*
Y304000D02*
D03*
Y284000D02*
D03*
X228284Y196000D02*
D03*
X263717D02*
D03*
X97988Y185512D02*
D03*
X121610Y193386D02*
D03*
X74366D02*
D03*
Y241417D02*
D03*
X121610D02*
D03*
X384000Y218500D02*
D03*
X324000Y198500D02*
D03*
X296000Y187000D02*
D03*
Y177000D02*
D03*
X96988Y65512D02*
D03*
X120610Y73386D02*
D03*
X73366D02*
D03*
Y121417D02*
D03*
X120610D02*
D03*
D14*
X470000Y178000D02*
D03*
Y195000D02*
D03*
X184000Y207000D02*
D03*
Y229000D02*
D03*
X156000Y139000D02*
D03*
X176000Y107000D02*
D03*
X142000Y37000D02*
D03*
X296000Y105000D02*
D03*
Y79000D02*
D03*
X394000Y89000D02*
D03*
M02*
